<?xml version="1.0" standalone="no"?>
<!DOCTYPE svg PUBLIC "-//W3C//DTD SVG 1.1//EN" "http://www.w3.org/Graphics/SVG/1.1/DTD/svg11.dtd" >
<svg xmlns="http://www.w3.org/2000/svg">
<metadata>
This is a custom SVG webfont generated by Fontspring.
Designer    : FontSite.com
Foundry URL : http://www.fontsite.com
</metadata>
<defs>
<font id="webfont" horiz-adv-x="536" >
<font-face units-per-em="1000" ascent="758" descent="-242" />
<missing-glyph horiz-adv-x="250" />
<glyph unicode=" "  horiz-adv-x="250" />
<glyph unicode="&#x09;" horiz-adv-x="250" />
<glyph unicode="&#xa0;" horiz-adv-x="250" />
<glyph unicode="!" horiz-adv-x="347" d="M173 165l96 502h78l-118 -502h-56zM127 0l17 81h78l-17 -81h-78z" />
<glyph unicode="&#x22;" horiz-adv-x="293" d="M238 453l48 267h65l-66 -267h-47zM106 453l48 267h65l-66 -267h-47z" />
<glyph unicode="#" d="M98 0l46 217h-92l11 50h92l32 150h-93l11 50h93l42 200h53l-42 -200h143l42 200h53l-42 -200h89l-10 -50h-90l-32 -150h90l-11 -50h-89l-46 -217h-54l46 217h-142l-46 -217h-54zM208 267h143l32 150h-143z" />
<glyph unicode="$" d="M41 32l19 62q68 -38 145 -41l59 277q-66 37 -95.5 76t-29.5 88t25 91t68 64q36 19 104 23l19 88h44l-19 -88q82 0 139 -31l-21 -60q-51 36 -129 37l-51 -240q76 -43 107 -83.5t31 -95.5q0 -87 -59.5 -142.5t-159.5 -60.5l-19 -87h-44l19 87q-91 4 -152 36zM279 401 l46 216q-56 -8 -87 -38.5t-31 -77.5q0 -32 16 -54.5t56 -45.5zM249 54q50 5 82 28q26 20 42 49t16 58q0 36 -20 63.5t-66 54.5z" />
<glyph unicode="%" horiz-adv-x="846" d="M150 -42l540 751h54l-540 -751h-54zM221 323q-55 0 -86.5 31.5t-31.5 86.5q0 80 41 148q58 95 159 95q57 0 89.5 -30.5t32.5 -85.5q0 -88 -46 -158q-57 -87 -158 -87zM235 373q69 0 104 78q24 53 24 110q0 73 -68 73q-71 0 -106 -79q-24 -55 -24 -109q0 -33 19 -53 t51 -20zM470 99q0 83 41 150q58 95 159 95q58 0 90 -30.5t32 -84.5q0 -89 -46 -159q-57 -87 -158 -87q-54 0 -86 31.5t-32 84.5zM531 105q0 -32 19.5 -52t50.5 -20q70 0 105 78q24 53 24 110q0 73 -68 73q-72 0 -107 -79q-24 -55 -24 -110z" />
<glyph unicode="&#x26;" horiz-adv-x="638" d="M39 165q0 49 25 91.5t70 71.5q46 29 121 48q-65 92 -65 152q0 65 50.5 107.5t127.5 42.5q74 0 118.5 -37t44.5 -99q0 -64 -47 -110t-145 -78l130 -188q62 62 94 201h61q-14 -71 -48 -138t-77 -109l79 -120h-73l-49 76q-59 -47 -106.5 -66t-107.5 -19q-91 0 -147 48 t-56 126zM310 392q77 22 118.5 58.5t41.5 83.5q0 41 -28.5 67t-72.5 26q-51 0 -84.5 -29.5t-33.5 -74.5q0 -12 3.5 -23.5t7 -19t17.5 -32.5l24 -43q3 -6 7 -13zM106 172q0 -53 39.5 -89.5t97.5 -36.5q98 0 185 78l-144 215q-92 -29 -135 -69t-43 -98z" />
<glyph unicode="'" horiz-adv-x="161" d="M106 453l48 267h65l-66 -267h-47z" />
<glyph unicode="(" horiz-adv-x="317" d="M55 165q0 200 161 428q41 58 100 127h53q-142 -187 -198.5 -314t-56.5 -260q0 -132 61 -339h-43q-77 213 -77 358z" />
<glyph unicode=")" horiz-adv-x="317" d="M121 -66q-43 -61 -101 -127h-53q140 182 198 312t58 262q0 135 -62 339h43q77 -214 77 -358q0 -200 -160 -428z" />
<glyph unicode="*" d="M212 402l-37 43l121 94l-132 78l30 49l124 -88l29 151l56 -12l-39 -148l152 18l6 -57l-153 -7l63 -140l-53 -22l-53 143z" />
<glyph unicode="+" d="M267 123v191h-197v53h197v190h53v-190h197v-53h-197v-191h-53z" />
<glyph unicode="," horiz-adv-x="267" d="M80 82h82l-117 -212h-64z" />
<glyph unicode="-" horiz-adv-x="244" d="M1 226l11 53h244l-11 -53h-244z" />
<glyph unicode="." horiz-adv-x="267" d="M48 0l17 81h78l-17 -81h-78z" />
<glyph unicode="/" horiz-adv-x="348" d="M-51 -193h-61l477 913h59z" />
<glyph unicode="0" d="M55 203q0 79 27 179.5t65 165.5q77 130 209 130q82 0 128 -54.5t46 -151.5q0 -96 -37 -215.5t-85 -178.5q-71 -87 -178 -87q-79 0 -127 58t-48 154zM122 196q0 -68 31 -109t82 -41q77 0 133 89q42 65 69 162.5t27 181.5q0 67 -30 105.5t-82 38.5q-100 0 -165 -140 q-29 -62 -47 -142.5t-18 -144.5z" />
<glyph unicode="1" d="M226 0l109 512q14 67 22 87q-31 -24 -65 -46l-69 -44l-32 44l193 114h47l-142 -667h-63z" />
<glyph unicode="2" d="M3 0l10 48l104 90q194 167 254 237.5t60 132.5q0 47 -32.5 76.5t-83.5 29.5q-65 0 -169 -54l4 68q104 46 169 46q79 0 129 -45.5t50 -117.5q0 -81 -89 -181q-38 -43 -147.5 -141t-164.5 -139q75 3 112 3h215l-12 -53h-409z" />
<glyph unicode="3" d="M13 23l19 56q72 -33 158 -33q84 0 140 46t56 115q0 34 -17 61t-46 40q-44 19 -117 19q-18 0 -32 -1l13 58q31 -3 50 -3q97 0 153.5 36t56.5 98q0 49 -38 78.5t-100 29.5q-77 0 -155 -39l6 61q72 33 151 33q92 0 147.5 -43t55.5 -115q0 -68 -47 -114t-126 -56 q114 -34 114 -141q0 -91 -76.5 -154.5t-185.5 -63.5q-93 0 -180 32z" />
<glyph unicode="4" d="M9 158l12 58l403 451h83l-97 -456h98l-12 -53h-97l-34 -158h-63l34 158h-327zM82 208q28 3 40 3h36h189l59 279q9 43 36 136l-38 -54l-55 -65l-194 -222q-38 -44 -73 -77z" />
<glyph unicode="5" d="M42 19l13 58q67 -31 134 -31q97 0 158.5 50.5t61.5 130.5q0 62 -42.5 97.5t-117.5 35.5q-57 0 -130 -21l76 328h354l-11 -53h-293l-51 -211q55 12 85 12q88 0 143 -51t55 -131q0 -106 -78.5 -174t-200.5 -68q-81 0 -156 28z" />
<glyph unicode="6" d="M64 235q0 104 32 198t87 153q87 92 212 92q70 0 147 -32l-17 -55q-64 32 -132 32q-98 0 -163.5 -72t-93.5 -208q72 85 172 85q82 0 136 -54.5t54 -137.5q0 -91 -60 -164q-69 -81 -172 -81q-97 0 -149.5 63.5t-52.5 180.5zM132 195q0 -68 37 -108.5t98 -40.5q69 0 116 53 t47 131q0 64 -37.5 103.5t-96.5 39.5q-70 0 -117 -50.5t-47 -127.5z" />
<glyph unicode="7" d="M76 0l360 545l20 30q18 27 32 42q-33 -3 -74 -3h-273l12 53h408l-12 -57l-396 -610h-77z" />
<glyph unicode="8" d="M35 169q0 44 22.5 83t61.5 63q42 26 110 43q-98 59 -98 147q0 75 59.5 124t150.5 49q84 0 135 -41.5t51 -110.5q0 -63 -44 -105.5t-139 -71.5q73 -32 105.5 -71.5t32.5 -94.5q0 -82 -65 -137t-163 -55q-97 0 -158 49.5t-61 128.5zM286 374q6 2 13 4q160 48 160 147 q0 42 -35.5 70t-89.5 28q-58 0 -96.5 -32.5t-38.5 -82.5q0 -67 87 -134zM104 173q0 -57 43 -92t111 -35q67 0 111.5 39.5t44.5 98.5q0 47 -32.5 81.5t-105.5 65.5q-172 -45 -172 -158z" />
<glyph unicode="9" d="M40 23l17 55q64 -32 132 -32q98 0 163.5 71.5t93.5 208.5q-72 -85 -172 -85q-82 0 -136 54.5t-54 137.5q0 101 69 173t165 72q79 0 133 -49q66 -63 66 -195q0 -104 -32 -198t-87 -153q-87 -92 -212 -92q-68 0 -146 32zM285 296q70 0 117 50.5t47 127.5q0 67 -36.5 108 t-96.5 41q-69 0 -116.5 -53.5t-47.5 -130.5q0 -64 37 -103.5t96 -39.5z" />
<glyph unicode=":" horiz-adv-x="267" d="M134 404l17 81h78l-17 -81h-78zM48 0l17 81h78l-17 -81h-78z" />
<glyph unicode=";" horiz-adv-x="267" d="M150 404l18 81h78l-18 -81h-78zM80 82h82l-117 -212h-64z" />
<glyph unicode="&#x3c;" horiz-adv-x="500" d="M58 309v53l433 199v-60l-368 -165l368 -166v-59z" />
<glyph unicode="=" d="M70 380v53h447v-53h-447zM70 247v53h447v-53h-447z" />
<glyph unicode="&#x3e;" horiz-adv-x="500" d="M58 110v61l368 165l-368 165v60l433 -199v-53z" />
<glyph unicode="?" horiz-adv-x="491" d="M183 164q17 79 39.5 111.5t112.5 106.5q49 40 70 73t21 69q0 42 -34.5 68.5t-88.5 26.5q-46 0 -121 -26l13 60q71 21 121 21q79 0 126 -39t47 -104q0 -57 -33 -102q-16 -23 -40 -45.5t-95 -82.5q-42 -36 -57 -61t-25 -76h-56zM137 0l17 81h78l-17 -81h-78z" />
<glyph unicode="@" horiz-adv-x="772" d="M183 88q-99 99 -99 246q0 145 100.5 244.5t246.5 99.5q136 0 226 -84.5t90 -212.5q0 -95 -49.5 -166.5t-115.5 -71.5q-29 0 -49 16.5t-25 45.5q-44 -65 -121 -65q-62 0 -102 46t-40 117q0 86 52 145.5t126 59.5q37 0 61.5 -15.5t47.5 -54.5l12 57h51l-42 -216 q-4 -18 -6 -47q-1 -19 9.5 -32t27.5 -13q45 0 80 59t35 134q0 110 -75.5 180.5t-192.5 70.5q-125 0 -210.5 -86t-85.5 -212q0 -124 81 -208q82 -88 225 -88q113 0 215 51l16 -47q-111 -52 -230 -52q-162 0 -259 99zM301 304q0 -50 26.5 -81.5t68.5 -31.5q49 0 82.5 47 t33.5 116q0 47 -23.5 74t-63.5 27q-51 0 -87.5 -44.5t-36.5 -106.5z" />
<glyph unicode="A" horiz-adv-x="653" d="M-36 0l419 667h78l135 -667h-68l-34 181h-346l-112 -181h-72zM184 237h298l-53 278l-2 15l-6 37l-5 31q0 1 -0.5 3t-1.5 5.5t-2 6.5q-2 -4 -4.5 -8t-4 -6t-1.5 -3l-19 -34q-7 -14 -28 -49z" />
<glyph unicode="B" horiz-adv-x="540" d="M39 0l142 668h101q97 0 135 -13q49 -16 75.5 -52t26.5 -86q0 -61 -39 -106q-21 -24 -41.5 -35t-69.5 -25l-2 -1q-2 0 -4.5 -1t-4.5 -1q43 -12 57 -20q26 -15 42.5 -49.5t16.5 -74.5q0 -50 -27 -94.5t-75 -72.5q-38 -22 -80 -29.5t-127 -7.5h-126zM183 375h52 q105 0 152 30q66 42 66 111q0 56 -50 80q-31 16 -111 16h-58zM116 56h55q70 0 104.5 6.5t66.5 26.5q68 44 68 118q0 32 -16 57.5t-44 38.5q-32 16 -115 16h-63z" />
<glyph unicode="C" horiz-adv-x="591" d="M72 287q0 170 109.5 280.5t277.5 110.5q93 0 180 -37l-20 -58q-83 37 -164 37q-137 0 -226.5 -94t-89.5 -237q0 -104 65 -173t164 -69q69 0 150 30l-9 -64q-70 -24 -144 -24q-129 0 -211 83t-82 215z" />
<glyph unicode="D" horiz-adv-x="647" d="M39 0l142 667h87q120 0 173 -15q88 -26 135 -92.5t47 -164.5q0 -126 -64.5 -226t-172.5 -141q-45 -17 -88.5 -22.5t-142.5 -5.5h-116zM116 56h71q118 0 181 27q85 37 135.5 122t50.5 191q0 129 -95 186q-28 17 -62 23t-102 6h-61z" />
<glyph unicode="E" horiz-adv-x="493" d="M39 0l142 665h332l-12 -56h-268l-50 -235h254l-12 -56h-254l-55 -262h281l-12 -56h-346z" />
<glyph unicode="F" horiz-adv-x="446" d="M39 0l141 663h319l-12 -56h-254l-50 -233h245l-12 -56h-245l-67 -318h-65z" />
<glyph unicode="G" horiz-adv-x="677" d="M146 78q-76 84 -76 213q0 89 36 168.5t100 131.5q108 87 268 87q99 0 194 -39l-20 -61q-85 42 -175 42q-141 0 -232 -83q-47 -43 -75 -109t-28 -135q0 -113 73 -184q63 -62 179 -62q55 0 111 20l49 231h-156l12 56h221l-72 -336q-84 -29 -181 -29q-146 0 -228 89z" />
<glyph unicode="H" horiz-adv-x="649" d="M39 0l142 667h64l-61 -290h348l61 290h65l-142 -667h-64l68 321h-348l-68 -321h-65z" />
<glyph unicode="I" horiz-adv-x="237" d="M39 0l142 667h65l-142 -667h-65z" />
<glyph unicode="J" horiz-adv-x="343" d="M-16 2l15 56q33 -11 59 -11q68 0 97 54q10 21 14 30.5t11.5 39.5t21.5 96l85 400h65l-87 -406q-30 -141 -40 -162q-2 -6 -6 -14q-45 -96 -157 -96q-38 0 -78 13z" />
<glyph unicode="K" horiz-adv-x="587" d="M39 0l144 667h64l-55 -255q-3 -15 -10 -40q14 15 27 26l18.5 17t21.5 18l295 234h96l-397 -313l285 -354h-82l-243 306q-15 19 -26 39l-1 -12l-5 -23l-6 -28l-60 -282h-66z" />
<glyph unicode="L" horiz-adv-x="453" d="M39 0l142 667h64l-129 -611h278l-12 -56h-343z" />
<glyph unicode="M" horiz-adv-x="863" d="M39 0l142 667h97l99 -461q0 -1 0.5 -5.5t2.5 -14l5 -24.5l15 -83h3q19 37 69 117l301 471h99l-142 -667h-64l105 494q2 12 10 40.5t15 59.5l3 14h-4q-12 -31 -70 -122l-312 -486h-54l-104 481q-9 42 -22 127h-5q-3 -39 -20 -116l-104 -492h-65z" />
<glyph unicode="N" horiz-adv-x="668" d="M39 0l145 667h80l178 -465q28 -75 44 -128h5q5 49 25 143l96 450h65l-142 -667h-83l-181 473q-29 75 -40 121h-4q-2 -29 -17 -100l-105 -494h-66z" />
<glyph unicode="O" horiz-adv-x="701" d="M65 266q0 109 48 205t131 152q82 55 187 55q113 0 180.5 -72t67.5 -194q0 -85 -28 -167t-78 -142q-44 -53 -111 -83.5t-141 -30.5q-120 0 -188 73.5t-68 203.5zM136 264q0 -100 52 -158.5t140 -58.5q110 0 181 79q49 56 76.5 130.5t27.5 153.5q0 118 -73 173 q-49 37 -115 37q-93 0 -163 -60q-57 -49 -91.5 -130t-34.5 -166z" />
<glyph unicode="P" horiz-adv-x="490" d="M39 0l142 667h98q68 0 99 -4.5t58 -18.5q39 -20 61 -58t22 -86q0 -67 -40 -121t-106 -76q-48 -15 -156 -15h-52l-61 -288h-65zM177 345h38q116 0 158 23q36 20 56.5 55t20.5 78q0 73 -59 98q-34 14 -113 14h-44z" />
<glyph unicode="Q" horiz-adv-x="701" d="M64 266q0 173 105.5 292.5t257.5 119.5q115 0 183 -72t68 -194q0 -116 -49 -219t-128 -152q-41 -25 -80 -36l118 -134h-83l-101 120q-24 -2 -34 -2q-121 0 -189 73.5t-68 203.5zM135 264q0 -100 52 -158.5t140 -58.5q110 0 181 79q49 56 76.5 130.5t27.5 153.5 q0 96 -51 153t-137 57q-91 0 -163 -60q-57 -49 -91.5 -130t-34.5 -166z" />
<glyph unicode="R" horiz-adv-x="545" d="M39 0l142 668h115q66 0 99.5 -6t58.5 -22q67 -41 67 -122q0 -78 -54 -130t-137 -53l-1 -5q36 -5 52.5 -27.5t33.5 -91.5l52 -211h-67l-46 194q-18 77 -39.5 95.5t-90.5 18.5h-55l-65 -308h-65zM182 366h37q102 0 147 20q41 18 64 51t23 74q0 64 -58 88q-30 13 -107 13 h-54z" />
<glyph unicode="S" horiz-adv-x="494" d="M26 27l20 63q72 -43 146 -43q75 0 124 39.5t49 99.5q0 40 -23.5 67t-97.5 74q-68 42 -96 80.5t-28 87.5q0 81 63.5 132t163.5 51q68 0 147 -30l-21 -63q-60 35 -126 35q-70 0 -114.5 -33t-44.5 -86q0 -36 24.5 -63t96.5 -72q71 -44 98 -81t27 -90q0 -89 -69 -147.5 t-174 -58.5q-92 0 -165 38z" />
<glyph unicode="T" horiz-adv-x="499" d="M170 0l130 609h-202l12 56h469l-12 -56h-202l-130 -609h-65z" />
<glyph unicode="U" horiz-adv-x="665" d="M93 189q0 61 26 185l62 293h65l-62 -291q-27 -128 -27 -183q0 -67 41 -106.5t110 -39.5q136 0 191 133q15 37 42 164l68 323h65l-70 -328q-25 -117 -37 -155.5t-33 -72.5q-38 -59 -96.5 -90.5t-129.5 -31.5q-97 0 -156 55t-59 145z" />
<glyph unicode="V" horiz-adv-x="600" d="M218 0l-112 667h66l76 -473q10 -65 14 -140h4q22 57 87 168l262 445h70l-397 -667h-70z" />
<glyph unicode="W" horiz-adv-x="926" d="M165 0l-59 667h65l35 -424q9 -115 9 -159q0 -17 -1 -31h4q20 66 59 141l240 473h82l27 -425q7 -121 7 -158q0 -18 -1 -31h4q26 77 60 141l245 473h69l-348 -667h-80l-31 443q-5 73 -5 121q0 25 1 48h-4q-14 -48 -67 -152l-232 -460h-79z" />
<glyph unicode="X" horiz-adv-x="606" d="M-33 0l323 354l-164 313h73l97 -190q13 -26 15 -31q3 -4 10 -21l7 -17l6 -14h4q37 46 77 88l171 185h85l-299 -316l174 -351h-73l-108 221l-10 22q-13 27 -15 34l-9 23q-3 6 -5 11l-11 -14l-14 -19q-15 -20 -36 -44l-214 -234h-84z" />
<glyph unicode="Y" horiz-adv-x="597" d="M220 0l60 282l-174 385h72l100 -230q16 -37 17 -40l5 -13q2 -8 13 -33q1 -1 3 -7.5t4 -10.5q21 30 74 92l208 242h80l-338 -385l-60 -282h-64z" />
<glyph unicode="Z" horiz-adv-x="507" d="M-16 0l13 61l431 506q32 36 40 44l-29 -2h-20h-12h-284l12 56h420l-13 -60l-422 -499q-29 -35 -49 -53q25 3 66 3h302l-12 -56h-443z" />
<glyph unicode="[" horiz-adv-x="317" d="M61 -152h93l-9 -41h-149l194 913h149l-8 -42h-94z" />
<glyph unicode="\" horiz-adv-x="346" d="M281 -193l-185 913h54l187 -913h-56z" />
<glyph unicode="]" horiz-adv-x="317" d="M5 -151h93l177 830h-93l8 41h149l-194 -913h-149z" />
<glyph unicode="^" horiz-adv-x="500" d="M54 372l181 296h79l180 -296h-66l-155 249l-153 -249h-66z" />
<glyph unicode="_" horiz-adv-x="500" d="M24 -70h500v-56h-500v56z" />
<glyph unicode="`" horiz-adv-x="500" d="M339 566l-118 131h87l84 -131h-53z" />
<glyph unicode="a" horiz-adv-x="496" d="M23 125q0 55 35 96t99 61q54 17 153 17q20 0 61 -3q4 32 4 51q0 43 -29.5 68.5t-79.5 25.5q-67 0 -145 -39l8 66q79 26 144 26q74 0 118.5 -38.5t44.5 -103.5q0 -35 -14 -102l-22 -101q-12 -52 -23 -149h-55q0 18 1 27q1 3 2.5 10.5l2.5 12.5l4 16q1 3 3 11 q-36 -45 -73.5 -64.5t-88.5 -19.5q-67 0 -108.5 36.5t-41.5 95.5zM87 127q0 -37 26.5 -59t70.5 -22q51 0 90 27.5t61 77.5q14 34 26 94l-48 1q-90 1 -144 -17q-82 -30 -82 -102z" />
<glyph unicode="b" horiz-adv-x="541" d="M27 0l26 123l127 597h62l-52 -243q-5 -25 -6 -27q-8 -30 -8 -33l-1 -10q34 47 70.5 67t90.5 20q81 0 127 -52.5t46 -144.5q0 -136 -79 -232q-63 -74 -165 -74q-68 0 -111 35q-30 25 -46 76q-11 -61 -23 -102h-58zM137 191q0 -65 35.5 -106t90.5 -41q76 0 129 73.5 t53 180.5q0 67 -30.5 105t-83.5 38q-79 0 -136.5 -74t-57.5 -176z" />
<glyph unicode="c" horiz-adv-x="432" d="M148 93q36 -44 112 -44q40 0 113 23l-8 -60q-67 -16 -115 -16q-94 0 -151 59.5t-57 157.5q0 61 26.5 119.5t70.5 96.5q71 61 183 61q59 0 131 -19l-16 -59q-59 25 -119 25q-86 0 -144 -55q-31 -30 -49 -75t-18 -91q0 -76 41 -123z" />
<glyph unicode="d" horiz-adv-x="542" d="M40 188q0 132 68.5 219t172.5 87q60 0 101.5 -28t53.5 -77h4q3 31 12 73l55 258h62l-124 -584q-15 -72 -23 -136h-61q5 39 18 91q-28 -44 -47 -59q-48 -41 -121 -41q-79 0 -125 53t-46 144zM105 193q0 -71 30 -110t84 -39q76 0 134.5 75.5t58.5 174.5q0 66 -35 106.5 t-91 40.5q-76 0 -128.5 -72t-52.5 -176z" />
<glyph unicode="e" horiz-adv-x="493" d="M38 195q0 67 25 131t69 108q60 60 153 60q82 0 130 -45.5t48 -123.5q0 -37 -12 -97h-344q-4 -17 -4 -35q0 -71 38 -110t107 -39q59 0 137 33l-4 -57q-66 -29 -139 -29q-95 0 -149.5 54.5t-54.5 149.5zM115 279h282q4 28 4 47q0 52 -32 83.5t-85 31.5q-61 0 -106 -43 t-63 -119z" />
<glyph unicode="f" horiz-adv-x="330" d="M77 0l92 436h-105l11 51h105l11 53q16 74 32 106q39 83 132 83q35 0 65 -11l-13 -53q-24 10 -45 10q-55 0 -79 -40q-15 -28 -28 -89l-13 -59h122l-11 -51h-122l-92 -436h-62z" />
<glyph unicode="g" horiz-adv-x="552" d="M17 -113q74 -42 150 -42q103 0 151 65q20 29 37 90q12 38 14 43l6 22l6 20q-38 -46 -76 -65t-90 -19q-79 0 -125.5 53.5t-46.5 143.5q0 125 74 217q61 78 169 78q61 0 102.5 -28.5t51.5 -77.5h4q2 45 20 98h61q-15 -57 -28 -116l-61 -287q-20 -96 -31 -131t-29 -63 q-62 -96 -209 -96q-82 0 -169 35zM108 195q0 -64 33 -102.5t87 -38.5q78 0 132.5 68t54.5 166q0 69 -34.5 110.5t-91.5 41.5q-74 0 -119 -56q-62 -76 -62 -189z" />
<glyph unicode="h" horiz-adv-x="535" d="M27 0l153 720h62l-49 -230l-4 -19q-5 -25 -8 -35l-7 -25l-2 -10q39 52 76 72.5t90 20.5q67 0 107 -39t40 -104q0 -32 -20 -128l-48 -223h-62l47 220q19 90 19 123q0 44 -27 71t-70 27t-81.5 -25t-63.5 -68q-23 -42 -47 -149l-43 -199h-62z" />
<glyph unicode="i" horiz-adv-x="209" d="M153 622l18 83h73l-18 -83h-73zM27 0l103 485h62l-103 -485h-62z" />
<glyph unicode="j" horiz-adv-x="211" d="M154 622l17 83h73l-18 -83h-72zM22 -28l109 513h62l-112 -524q-20 -92 -36 -115q-36 -54 -101 -54q-34 0 -65 10l16 51q21 -8 37 -8q42 0 63 36q13 21 27 91z" />
<glyph unicode="k" horiz-adv-x="484" d="M27 0l153 720h62l-80 -379q-6 -27 -15 -56h3q14 13 42 34l221 166h89l-295 -217l220 -268h-79l-171 211q-10 14 -11 14l-14 20l-10 12q0 -3 -1 -6q-1 -4 -1 -5l-2 -13q0 -1 -0.5 -3t-1.5 -8t-3 -16l-44 -206h-62z" />
<glyph unicode="l" horiz-adv-x="209" d="M27 0l153 720h62l-153 -720h-62z" />
<glyph unicode="m" horiz-adv-x="813" d="M32 0l68 317q3 14 17 89q8 40 13 79h59q-2 -26 -3 -32q0 -2 -1.5 -7.5l-4 -14.5t-4.5 -17q-1 -7 -3 -13q58 92 162 92q55 0 86.5 -29t34.5 -82q25 52 55 75q47 36 116 36q64 0 100.5 -36t36.5 -98q0 -30 -27 -158l-43 -201h-62l43 203q26 125 26 145q0 41 -24 66.5 t-64 25.5q-37 0 -71.5 -23t-57.5 -63q-25 -44 -47 -149l-44 -205h-62l44 205q25 115 25 145q0 42 -21 66t-58 24q-86 0 -136 -92q-28 -51 -47 -143l-44 -205h-62z" />
<glyph unicode="n" horiz-adv-x="542" d="M33 0l74 346q7 30 24 139h61q-3 -28 -14 -72q0 -3 -3 -13q33 50 72 71.5t95 21.5q69 0 109 -38t40 -103q0 -41 -26 -163l-41 -189h-62l38 176q27 128 27 167q0 45 -26.5 71t-71.5 26q-85 0 -139 -85q-30 -49 -49 -136l-46 -219h-62z" />
<glyph unicode="o" horiz-adv-x="533" d="M39 201q0 122 78.5 207.5t191.5 85.5q87 0 139.5 -56.5t52.5 -150.5q0 -120 -75 -209q-74 -87 -188 -87q-90 0 -144.5 57.5t-54.5 152.5zM104 205q0 -74 37 -117.5t99 -43.5q86 0 140 74q56 75 56 168q0 71 -36 113t-97 42q-82 0 -140.5 -69.5t-58.5 -166.5z" />
<glyph unicode="p" horiz-adv-x="541" d="M99 27l-47 -219h-62l115 541q17 78 25 136h57q-1 -18 -4 -32q-1 -6 -6 -26l-5 -19l-2 -10q36 53 73 74t96 21q82 0 127.5 -49.5t45.5 -139.5q0 -132 -78 -229q-68 -84 -176 -84q-116 0 -148 103q-3 -9 -3 -12l-2 -19q-3 -21 -6 -36zM138 182q0 -65 31 -101.5t86 -36.5 q86 0 135 71q58 85 58 190q0 63 -31 99t-85 36q-80 0 -137 -76t-57 -182z" />
<glyph unicode="q" horiz-adv-x="546" d="M43 192q0 141 84 233q62 68 158 68q86 0 125 -47q13 -17 33 -65q12 75 23 104h61q-9 -27 -31 -132l-119 -557h-62l37 172q15 69 28 113h-3q-52 -90 -156 -90q-83 0 -130.5 53.5t-47.5 147.5zM106 193q0 -70 32 -109.5t89 -39.5q51 0 93.5 33.5t65.5 92.5q27 67 27 124 q0 64 -35 105t-91 41q-78 0 -129.5 -70.5t-51.5 -176.5z" />
<glyph unicode="r" horiz-adv-x="335" d="M34 0l72 340q19 89 24 145h63q-4 -39 -18 -85h5q45 89 138 89q17 0 52 -5l-13 -65q-24 9 -46 9q-80 0 -124 -73q-24 -38 -43 -129l-48 -226h-62z" />
<glyph unicode="s" horiz-adv-x="387" d="M-2 21l20 58q69 -35 129 -35q55 0 89 25t34 66q0 38 -33 64q-17 13 -69 44q-50 29 -71.5 57t-21.5 62q0 31 18 59.5t47 45.5q46 27 116 27q64 0 126 -26l-19 -58q-55 31 -111 31q-49 0 -80.5 -21t-31.5 -53q0 -25 17 -41.5t81 -54.5q52 -31 74.5 -61.5t22.5 -70.5 q0 -64 -51 -107q-50 -41 -141 -41q-64 0 -145 30z" />
<glyph unicode="t" horiz-adv-x="336" d="M101 97q0 32 21 133l43 204h-99l11 51h99l25 115l66 22l-29 -137h130l-11 -51h-130l-44 -208q-19 -91 -19 -127q0 -24 16 -37.5t43 -13.5q22 0 48 11l-8 -54q-27 -10 -55 -10q-52 0 -79.5 26.5t-27.5 75.5z" />
<glyph unicode="u" d="M66 148q0 44 20 136l43 201h62l-43 -201q-19 -88 -19 -126q0 -53 26 -83.5t72 -30.5q86 0 134 90q27 50 50 161l40 190h62l-66 -313q-20 -92 -31 -172h-57q9 67 20 93h-4q-23 -49 -66 -75.5t-96 -26.5q-67 0 -107 42.5t-40 114.5z" />
<glyph unicode="v" horiz-adv-x="442" d="M138 0l-68 485h63l39 -299q10 -73 11 -131h4q15 36 49 98l182 332h68l-274 -485h-74z" />
<glyph unicode="w" horiz-adv-x="769" d="M122 0l-52 485h63l29 -299q0 -2 0.5 -9.5t1.5 -18t1 -18.5l1 -35l1 -29q0 -1 0.5 -4t1 -8.5t0.5 -10.5q8 16 9 17l20 42q6 12 37 70l170 303h73l37 -301q8 -62 8 -108v-23h4q16 43 57 123l160 309h68l-260 -485h-75l-38 304q-6 48 -8 127h-4q-14 -40 -61 -125l-170 -306 h-74z" />
<glyph unicode="x" horiz-adv-x="444" d="M-33 0l230 259l-113 226h68l57 -119q5 -10 9 -20l13 -30q3 -9 7 -17q8 11 10 13q18 25 23 31q2 2 6 8t7 9l110 125h78l-204 -229l116 -256h-68l-62 141l-4.5 11t-4 10t-2.5 6l-12 35q0 1 -5 11q-14 -18 -15 -19q-23 -30 -25 -32l-19 -22l-123 -141h-77z" />
<glyph unicode="y" horiz-adv-x="441" d="M129 -27q1 1 2.5 4t4 7.5t4.5 7.5l-70 493h63l35 -272q7 -58 9 -79l4.5 -46t3.5 -34q14 34 16 38q17 39 41 82l173 311h70l-272 -479q0 -1 -3.5 -7l-9 -15.5t-9.5 -17.5q-50 -92 -80 -127q-41 -46 -102 -46q-33 0 -63 10l17 52q19 -9 37 -9q42 0 76 40q17 21 53 87z" />
<glyph unicode="z" horiz-adv-x="448" d="M-10 0l11 51l313 325l33 33q10 10 26 22q-36 -2 -42 -2h-38h-202l11 51h357l-10 -48l-329 -344l-8 -8q-8 -7 -15 -14q-11 -11 -22 -18q30 3 78 3h224l-11 -51h-376z" />
<glyph unicode="{" horiz-adv-x="500" d="M119 -45l41 191q5 27 5 41q0 42 -42 55l9 41q34 11 51.5 32t26.5 64l43 205q15 71 55 103.5t114 32.5h15l-9 -43q-58 -1 -83 -22t-37 -77l-43 -202q-10 -49 -27 -74t-48 -40q32 -21 32 -62q0 -22 -6 -54l-41 -194q-7 -28 -7 -49q0 -28 19.5 -40.5t64.5 -13.5l-9 -42h-15 q-62 0 -89 20t-27 66q0 25 7 62z" />
<glyph unicode="|" horiz-adv-x="500" d="M244 -167v834h60v-834h-60z" />
<glyph unicode="}" horiz-adv-x="500" d="M91 -151q58 2 83.5 23t37.5 77l42 201q10 49 27 74t48 40q-32 22 -32 63q0 27 6 53l42 194q6 33 6 50q0 28 -19.5 40t-64.5 13l9 43h16q61 0 88 -20.5t27 -65.5q0 -29 -7 -62l-41 -191q-5 -23 -5 -41q0 -42 42 -55l-9 -42q-33 -10 -50.5 -31.5t-26.5 -64.5l-44 -204 q-15 -71 -55 -103.5t-114 -32.5h-15z" />
<glyph unicode="~" horiz-adv-x="667" d="M155 588l-37 23q31 60 61 85t73 25q39 0 114 -37q69 -34 99 -34q29 0 49.5 16t45.5 57l37 -22q-54 -108 -139 -108q-22 0 -47 9t-92 41q-47 21 -71 21q-52 0 -93 -76z" />
<glyph unicode="&#xa1;" horiz-adv-x="347" d="M135 404l17 81h78l-17 -81h-78zM10 -181l118 502h56l-96 -502h-78z" />
<glyph unicode="&#xa2;" d="M251 29l18 84q-69 11 -110.5 65.5t-41.5 133.5q0 76 39.5 140.5t103.5 93.5q46 22 107 23l15 71h44l-15 -72q41 -3 88 -16l-15 -55q-41 18 -85 21l-76 -359q37 1 102 21l-8 -56q-63 -15 -104 -14l-18 -81h-44zM280 163l76 356q-78 -6 -128 -63.5t-50 -141.5 q0 -61 26.5 -100t75.5 -51z" />
<glyph unicode="&#xa3;" d="M20 0l11 53h98l59 277h-88l12 53h87l12 55q17 77 34.5 118t46.5 68q60 57 165 57q61 0 118 -24l-19 -55q-53 24 -98 24q-52 0 -91.5 -22t-59.5 -61q-18 -37 -45 -160h165l-12 -53h-164l-59 -277h248l-11 -53h-409z" />
<glyph unicode="&#xa4;" d="M95 68l-32 32l73 74q-40 51 -40 114q0 59 40 112l-75 75l32 32l75 -74q54 41 115 41t114 -41l75 74l32 -32l-74 -74q40 -53 40 -114q0 -62 -40 -113l75 -74l-32 -32l-75 74q-50 -40 -114 -40q-59 0 -115 40zM283 155q55 0 93.5 39t38.5 94q0 54 -38.5 93.5t-91.5 39.5 q-56 0 -95 -39t-39 -95q0 -54 38.5 -93t93.5 -39z" />
<glyph unicode="&#xa5;" d="M189 0l44 207h-179l11 53h180l4 22l-31 85h-140l11 53h110l-91 247h73l78 -231q24 -74 31 -103q29 50 62 92l188 242h78l-196 -247h110l-11 -53h-141l-67 -85l-5 -22h180l-11 -53h-180l-44 -207h-64z" />
<glyph unicode="&#xa6;" horiz-adv-x="500" d="M244 337v330h60v-330h-60zM244 153h60v-320h-60v320z" />
<glyph unicode="&#xa7;" d="M9 -98q95 -49 173 -49q71 0 118 36.5t47 91.5q0 41 -28 67q-18 17 -34.5 26.5t-98.5 47.5q-110 51 -110 144q0 72 58 121q27 23 91 58q-71 44 -71 119q0 72 58.5 118.5t149.5 46.5q81 0 171 -41l-22 -51q-75 39 -141 39q-65 0 -106.5 -33t-41.5 -84q0 -42 31 -68 q12 -11 26.5 -19t88.5 -43q61 -28 88.5 -60.5t27.5 -76.5q0 -99 -141 -185q39 -28 55.5 -55.5t16.5 -65.5q0 -79 -70.5 -133.5t-171.5 -54.5q-95 0 -184 46zM173 205l10 -8.5t7.5 -6t12.5 -7.5t15.5 -8t25.5 -13l35 -18q3 -2 27 -14q116 86 116 159q0 39 -59 76 q-23 14 -102 53q-69 -39 -94.5 -69t-25.5 -72q0 -45 32 -72z" />
<glyph unicode="&#xa8;" horiz-adv-x="500" d="M378 584l18 87h70l-18 -87h-70zM207 584l18 87h70l-18 -87h-70z" />
<glyph unicode="&#xa9;" horiz-adv-x="796" d="M79 333q0 144 101.5 244.5t246.5 100.5q139 0 239 -101.5t100 -243.5t-100.5 -243t-242.5 -101t-243 101t-101 243zM120 333q0 -126 89 -216t214 -90t213.5 89.5t88.5 216.5q0 126 -88 216.5t-210 90.5q-129 0 -218 -89t-89 -218zM233 340q0 86 58.5 138.5t154.5 52.5 q51 0 95 -17l-4 -44q-52 20 -93 20q-73 0 -117 -42t-44 -112t44 -110.5t118 -40.5q46 0 93 20l2 -46l-3 -1l-10 -4q-26 -10 -78 -10q-100 0 -158 52.5t-58 143.5z" />
<glyph unicode="&#xaa;" horiz-adv-x="354" d="M198 373q-44 0 -72 23t-28 59q0 71 88 98q35 10 98 10q18 0 33 -1q1 9 1 23q0 24 -17.5 38t-48.5 14q-41 0 -94 -25l5 49q54 17 97 17q48 0 77 -24.5t29 -64.5q0 -20 -8 -60l-13 -59q-6 -28 -13 -93h-44q0 21 4 34q-41 -38 -94 -38zM206 414q83 0 104 107l-29 1 q-133 4 -133 -64q0 -19 16 -31.5t42 -12.5zM75 293l9 43h247l-9 -43h-247z" />
<glyph unicode="&#xab;" horiz-adv-x="526" d="M351 69l-96 215l167 180h60l-167 -190l86 -205h-50zM194 69l-95 215l167 180h60l-167 -190l86 -205h-51z" />
<glyph unicode="&#xac;" horiz-adv-x="500" d="M58 211v56h433v-267h-60v211h-373z" />
<glyph unicode="&#xad;" horiz-adv-x="244" d="M1 226l11 53h244l-11 -53h-244z" />
<glyph unicode="&#xae;" horiz-adv-x="796" d="M79 333q0 144 101.5 244.5t246.5 100.5q139 0 239 -101.5t100 -243.5t-100.5 -243t-242.5 -101t-243 101t-101 243zM120 333q0 -126 89 -216t214 -90t213.5 89.5t88.5 216.5q0 126 -88 216.5t-210 90.5q-129 0 -218 -89t-89 -218zM308 147v382h83q70 0 98 -16 q51 -29 51 -85q0 -32 -20 -57t-54 -35q21 -10 41 -52l66 -137h-52l-56 117q-18 38 -31 46.5t-51 8.5h-27v-172h-48zM356 360h27q57 0 81 19q26 19 26 48q0 35 -33 52q-18 9 -67 9h-34v-128z" />
<glyph unicode="&#xaf;" horiz-adv-x="500" d="M205 600l10 49h252l-10 -49h-252z" />
<glyph unicode="&#xb0;" horiz-adv-x="374" d="M267 459q-58 0 -98.5 40t-40.5 97q0 55 41 94.5t98 39.5q58 0 98.5 -39.5t40.5 -95.5t-40.5 -96t-98.5 -40zM267 498q40 0 69 28.5t29 68.5t-28.5 68t-69.5 28q-40 0 -69 -28t-29 -67q0 -41 28.5 -69.5t69.5 -28.5z" />
<glyph unicode="&#xb1;" d="M236 123v191h-197v53h197v190h53v-190h197v-53h-197v-191h-53zM39 20v53h447v-53h-447z" />
<glyph unicode="&#xb2;" horiz-adv-x="247" d="M64 400l6 26l14 12q24 22 52 43q63 52 86.5 78t23.5 47q0 17 -13.5 28.5t-33.5 11.5q-27 0 -76 -24l1 37q49 20 78 20q36 0 59 -19.5t23 -50.5q0 -42 -59 -95q-43 -38 -101 -84q17 1 35 1h97l-7 -31h-185z" />
<glyph unicode="&#xb3;" horiz-adv-x="247" d="M67 411l11 32q36 -15 71 -15q34 0 56 16.5t22 41.5q0 45 -75 45h-17l7 33q12 -2 26 -2q39 0 61.5 12.5t22.5 34.5q0 18 -15.5 29t-41.5 11q-33 0 -70 -18l2 35q37 15 71 15q41 0 66.5 -18.5t25.5 -49.5q0 -48 -59 -69q35 -19 35 -56q0 -38 -34 -64.5t-83 -26.5 q-43 0 -82 14z" />
<glyph unicode="&#xb4;" horiz-adv-x="500" d="M269 566l112 131h92l-150 -131h-54z" />
<glyph unicode="&#xb5;" d="M87 58l-34 -250h-69l144 677h62l-43 -201q-19 -87 -19 -126q0 -53 26 -83.5t72 -30.5q86 0 134 90q25 46 50 161l41 190h62l-67 -313q-21 -97 -30 -172h-58q10 67 20 93h-3q-24 -49 -66.5 -75.5t-96.5 -26.5q-87 0 -125 67z" />
<glyph unicode="&#xb6;" d="M121 -193l108 506h-15q-65 0 -103 35.5t-38 96.5q0 59 32 113t84 81q53 28 133 28h240l-10 -48h-57l-173 -812h-52l172 812h-96l-172 -812h-53z" />
<glyph unicode="&#xb7;" horiz-adv-x="267" d="M95 222l17 81h78l-17 -81h-78z" />
<glyph unicode="&#xb8;" horiz-adv-x="500" d="M169 -71l51 71h38l-36 -50q9 1 18 1q31 0 50 -16.5t19 -42.5q0 -33 -32.5 -57.5t-76.5 -24.5q-42 0 -89 23l21 30q38 -19 66 -19q24 0 40.5 11.5t16.5 28.5q0 16 -12.5 25t-32.5 9q-10 0 -29 -4z" />
<glyph unicode="&#xb9;" horiz-adv-x="247" d="M159 400l45 210q1 3 2.5 10.5l2.5 12.5l-17 -11l-33 -20l-20 25l89 49h27l-59 -276h-37z" />
<glyph unicode="&#xba;" horiz-adv-x="387" d="M239 372q-59 0 -95 35.5t-36 94.5q0 73 50.5 124.5t122.5 51.5q57 0 92 -35.5t35 -93.5q0 -74 -49 -125.5t-120 -51.5zM242 413q48 0 82 39.5t34 95.5q0 41 -22.5 65t-59.5 24q-49 0 -83.5 -38.5t-34.5 -92.5q0 -42 23 -67.5t61 -25.5zM74 293l9 43h271l-9 -43h-271z" />
<glyph unicode="&#xbb;" horiz-adv-x="526" d="M220 69l167 190l-86 205h51l95 -215l-167 -180h-60zM64 69l167 190l-86 205h50l96 -215l-167 -180h-60z" />
<glyph unicode="&#xbc;" horiz-adv-x="835" d="M225 0l379 667h55l-380 -667h-54zM187 267l65 305l10 41q-8 -6 -31 -20l-46 -28l-26 32l127 70h35l-85 -400h-49zM470 93l9 40l252 267h56l-56 -267h62l-8 -40h-63l-20 -93h-46l20 93h-206zM531 132q7 1 38 1h116l33 159q1 4 16 60q-4 -6 -21 -26q-1 -1 -4 -4.5t-9 -9.5 t-11 -12l-121 -130q-12 -13 -37 -38z" />
<glyph unicode="&#xbd;" horiz-adv-x="835" d="M225 0l379 667h55l-380 -667h-54zM187 267l65 305l10 41q-8 -6 -31 -20l-46 -28l-26 32l127 70h35l-85 -400h-49zM468 0l8 34l172 144q85 75 85 122q0 27 -20 43.5t-53 16.5q-39 0 -106 -34l2 49q69 29 111 29q52 0 84.5 -28t32.5 -72q0 -61 -86 -138q-104 -92 -154 -128 q24 1 59 1h139l-8 -39h-266z" />
<glyph unicode="&#xbe;" horiz-adv-x="835" d="M53 281l15 42q46 -21 102 -21q51 0 84.5 25t33.5 63q0 68 -112 68h-24l9 42q32 -2 35 -2q59 0 92.5 20t33.5 54q0 27 -23.5 44t-61.5 17q-47 0 -100 -25l4 45q53 21 100 21q60 0 96 -27t36 -71q0 -48 -40 -78q-19 -14 -53 -23q59 -26 59 -83q0 -55 -49 -93t-120 -38 q-55 0 -117 20zM225 0l379 667h55l-380 -667h-54zM470 93l9 40l252 267h57l-57 -267h62l-8 -40h-63l-20 -93h-46l20 93h-206zM531 132q7 1 38 1h116l34 159q3 17 15 60q-4 -6 -21 -26l-7 -7l-17 -19l-121 -130q-12 -13 -37 -38z" />
<glyph unicode="&#xbf;" horiz-adv-x="491" d="M268 404l18 81h78l-18 -81h-78zM12 -45q0 55 33 102q15 23 38 44t97 84q42 36 57 61t25 76h56q-17 -80 -39 -111.5t-113 -106.5q-49 -40 -70 -73t-21 -70q0 -41 34.5 -67.5t88.5 -26.5q45 0 121 25l-13 -59q-69 -21 -121 -21q-79 0 -126 39t-47 104z" />
<glyph unicode="&#xc0;" horiz-adv-x="653" d="M409 731l-123 128h89l91 -128h-57zM-36 0l419 667h78l135 -667h-68l-34 181h-346l-112 -181h-72zM184 237h298l-53 278l-2 15l-6 37l-5 31q0 1 -0.5 3t-1.5 5.5t-2 6.5q-2 -4 -4.5 -8t-4 -6t-1.5 -3l-19 -34q-7 -14 -28 -49z" />
<glyph unicode="&#xc1;" horiz-adv-x="653" d="M398 731l111 128h93l-147 -128h-57zM-36 0l419 667h78l135 -667h-68l-34 181h-346l-112 -181h-72zM184 237h298l-53 278l-2 15l-6 37l-5 31q0 1 -0.5 3t-1.5 5.5t-2 6.5q-2 -4 -4.5 -8t-4 -6t-1.5 -3l-19 -34q-7 -14 -28 -49z" />
<glyph unicode="&#xc2;" horiz-adv-x="653" d="M284 731l142 128h73l88 -128h-70l-64 85l-100 -85h-69zM-36 0l419 667h78l135 -667h-68l-34 181h-346l-112 -181h-72zM184 237h298l-53 278l-2 15l-6 37l-5 31q0 1 -0.5 3t-1.5 5.5t-2 6.5q-2 -4 -4.5 -8t-4 -6t-1.5 -3l-19 -34q-7 -14 -28 -49z" />
<glyph unicode="&#xc3;" horiz-adv-x="653" d="M303 752q9 39 36.5 64.5t60.5 25.5q17 0 46 -13l44 -20q19 -9 31 -9q25 0 41 36h42q-25 -87 -96 -87q-20 0 -39 9l-45 21q-25 11 -36 11q-32 0 -44 -38h-41zM-36 0l419 667h78l135 -667h-68l-34 181h-346l-112 -181h-72zM184 237h298l-53 278l-2 15l-6 37l-5 31 q0 1 -0.5 3t-1.5 5.5t-2 6.5q-2 -4 -4.5 -8t-4 -6t-1.5 -3l-19 -34q-7 -14 -28 -49z" />
<glyph unicode="&#xc4;" horiz-adv-x="653" d="M502 746l19 89h74l-19 -89h-74zM311 746l19 89h75l-19 -89h-75zM-36 0l419 667h78l135 -667h-68l-34 181h-346l-112 -181h-72zM184 237h298l-53 278l-2 15l-6 37l-5 31q0 1 -0.5 3t-1.5 5.5t-2 6.5q-2 -4 -4.5 -8t-4 -6t-1.5 -3l-19 -34q-7 -14 -28 -49z" />
<glyph unicode="&#xc5;" horiz-adv-x="653" d="M444 708q-38 0 -64 26t-26 64q0 37 26.5 63t64.5 26q36 0 62 -26.5t26 -63.5t-26 -63t-63 -26zM444 749q20 0 34 14.5t14 33.5q0 20 -14 34.5t-34 14.5t-34.5 -14t-14.5 -34t14.5 -34.5t34.5 -14.5zM-36 0l419 667h78l135 -667h-68l-34 181h-346l-112 -181h-72zM184 237 h298l-53 278l-2 15l-6 37l-5 31q0 1 -0.5 3t-1.5 5.5t-2 6.5q-2 -4 -4.5 -8t-4 -6t-1.5 -3l-19 -34q-7 -14 -28 -49z" />
<glyph unicode="&#xc6;" horiz-adv-x="857" d="M35 0h-77l510 668h413l-12 -56h-293l-29 -241h254l-12 -56h-249l-32 -259h254l-12 -56h-317l22 178h-283zM214 234h248l38 298q1 4 2.5 20t3.5 27l6 32l1 10h-7z" />
<glyph unicode="&#xc7;" horiz-adv-x="591" d="M228 -141q36 -18 67 -18q23 0 39 12.5t16 30.5q0 34 -45 34q-9 0 -28 -4l-12 15l46 65q-113 21 -176 98.5t-63 194.5q0 169 110 280t277 111q93 0 180 -37l-20 -57q-82 36 -164 36q-136 0 -225.5 -94t-89.5 -237q0 -104 65 -173t163 -69q67 0 150 30l-9 -64 q-67 -24 -160 -24l-28 -39q11 1 20 1q31 0 50.5 -16.5t19.5 -43.5q0 -37 -34 -62.5t-82 -25.5q-42 0 -89 23z" />
<glyph unicode="&#xc8;" horiz-adv-x="493" d="M339 731l-123 128h89l91 -128h-57zM39 0l142 665h332l-12 -56h-268l-50 -235h254l-12 -56h-254l-55 -262h281l-12 -56h-346z" />
<glyph unicode="&#xc9;" horiz-adv-x="493" d="M324 731l111 128h93l-147 -128h-57zM39 0l142 665h332l-12 -56h-268l-50 -235h254l-12 -56h-254l-55 -262h281l-12 -56h-346z" />
<glyph unicode="&#xca;" horiz-adv-x="493" d="M215 731l142 128h73l88 -128h-70l-64 85l-100 -85h-69zM39 0l142 665h332l-12 -56h-268l-50 -235h254l-12 -56h-254l-55 -262h281l-12 -56h-346z" />
<glyph unicode="&#xcb;" horiz-adv-x="493" d="M428 746l19 89h74l-19 -89h-74zM237 746l19 89h75l-19 -89h-75zM39 0l142 665h332l-12 -56h-268l-50 -235h254l-12 -56h-254l-55 -262h281l-12 -56h-346z" />
<glyph unicode="&#xcc;" horiz-adv-x="237" d="M200 731l-101 128h84l74 -128h-57zM39 0l142 667h65l-142 -667h-65z" />
<glyph unicode="&#xcd;" horiz-adv-x="237" d="M197 731l95 128h89l-126 -128h-58zM39 0l142 667h65l-142 -667h-65z" />
<glyph unicode="&#xce;" horiz-adv-x="237" d="M101 731l115 128h74l60 -128h-66l-38 88l-79 -88h-66zM39 0l142 667h65l-142 -667h-65z" />
<glyph unicode="&#xcf;" horiz-adv-x="237" d="M251 746l19 89h70l-19 -89h-70zM135 746l19 89h70l-19 -89h-70zM39 0l142 667h65l-142 -667h-65z" />
<glyph unicode="&#xd0;" horiz-adv-x="647" d="M39 0l68 321h-73l11 54h74l62 292h88q119 0 172 -15q89 -26 136 -92.5t47 -164.5q0 -126 -64.5 -226t-173.5 -141q-45 -17 -88 -22.5t-142 -5.5h-117zM116 56h71q119 0 182 27q85 37 135.5 122t50.5 191q0 128 -96 186q-28 17 -62.5 23t-101.5 6h-61l-50 -236h186 l-11 -54h-186z" />
<glyph unicode="&#xd1;" horiz-adv-x="668" d="M318 752q9 39 36.5 64.5t60.5 25.5q17 0 46 -13l44 -20q19 -9 31 -9q25 0 41 36h42q-25 -87 -96 -87q-19 0 -39 9l-45 21q-25 11 -36 11q-32 0 -44 -38h-41zM39 0l145 667h80l178 -465q28 -75 44 -128h5q5 49 25 143l96 450h65l-142 -667h-83l-181 473q-29 75 -40 121h-4 q-2 -29 -17 -100l-105 -494h-66z" />
<glyph unicode="&#xd2;" horiz-adv-x="701" d="M441 731l-123 128h89l91 -128h-57zM65 266q0 109 48 205t131 152q82 55 187 55q113 0 180.5 -72t67.5 -194q0 -85 -28 -167t-78 -142q-44 -53 -111 -83.5t-141 -30.5q-120 0 -188 73.5t-68 203.5zM136 264q0 -100 52 -158.5t140 -58.5q110 0 181 79q49 56 76.5 130.5 t27.5 153.5q0 118 -73 173q-49 37 -115 37q-93 0 -163 -60q-57 -49 -91.5 -130t-34.5 -166z" />
<glyph unicode="&#xd3;" horiz-adv-x="701" d="M417 731l111 128h93l-147 -128h-57zM65 266q0 109 48 205t131 152q82 55 187 55q113 0 180.5 -72t67.5 -194q0 -85 -28 -167t-78 -142q-44 -53 -111 -83.5t-141 -30.5q-120 0 -188 73.5t-68 203.5zM136 264q0 -100 52 -158.5t140 -58.5q110 0 181 79q49 56 76.5 130.5 t27.5 153.5q0 118 -73 173q-49 37 -115 37q-93 0 -163 -60q-57 -49 -91.5 -130t-34.5 -166z" />
<glyph unicode="&#xd4;" horiz-adv-x="701" d="M307 731l142 128h73l88 -128h-70l-64 85l-100 -85h-69zM65 266q0 109 48 205t131 152q82 55 187 55q113 0 180.5 -72t67.5 -194q0 -85 -28 -167t-78 -142q-44 -53 -111 -83.5t-141 -30.5q-120 0 -188 73.5t-68 203.5zM136 264q0 -100 52 -158.5t140 -58.5q110 0 181 79 q49 56 76.5 130.5t27.5 153.5q0 118 -73 173q-49 37 -115 37q-93 0 -163 -60q-57 -49 -91.5 -130t-34.5 -166z" />
<glyph unicode="&#xd5;" horiz-adv-x="701" d="M328 752q9 39 36.5 64.5t60.5 25.5q17 0 46 -13l44 -20q19 -9 31 -9q25 0 41 36h42q-25 -87 -96 -87q-19 0 -39 9l-45 21q-25 11 -36 11q-32 0 -44 -38h-41zM65 266q0 109 48 205t131 152q82 55 187 55q113 0 180.5 -72t67.5 -194q0 -85 -28 -167t-78 -142 q-44 -53 -111 -83.5t-141 -30.5q-120 0 -188 73.5t-68 203.5zM136 264q0 -100 52 -158.5t140 -58.5q110 0 181 79q49 56 76.5 130.5t27.5 153.5q0 118 -73 173q-49 37 -115 37q-93 0 -163 -60q-57 -49 -91.5 -130t-34.5 -166z" />
<glyph unicode="&#xd6;" horiz-adv-x="701" d="M527 746l19 89h74l-19 -89h-74zM336 746l19 89h75l-19 -89h-75zM65 266q0 109 48 205t131 152q82 55 187 55q113 0 180.5 -72t67.5 -194q0 -85 -28 -167t-78 -142q-44 -53 -111 -83.5t-141 -30.5q-120 0 -188 73.5t-68 203.5zM136 264q0 -100 52 -158.5t140 -58.5 q110 0 181 79q49 56 76.5 130.5t27.5 153.5q0 118 -73 173q-49 37 -115 37q-93 0 -163 -60q-57 -49 -91.5 -130t-34.5 -166z" />
<glyph unicode="&#xd7;" d="M148 156l-38 38l146 146l-146 146l38 38l146 -146l146 146l38 -38l-146 -146l146 -146l-38 -38l-146 146z" />
<glyph unicode="&#xd8;" horiz-adv-x="701" d="M51 13l64 71q-50 75 -50 184q0 108 48.5 204t130.5 151t184 55q91 0 167 -56l61 66l36 -32l-63 -71q49 -71 49 -174q0 -84 -28.5 -166.5t-77.5 -141.5q-44 -53 -110.5 -83.5t-139.5 -30.5q-106 0 -175 59l-60 -68zM165 135l382 440q-45 45 -125 45q-119 0 -202.5 -104.5 t-83.5 -252.5q0 -38 5 -60.5t24 -67.5zM196 98q50 -51 132 -51q111 0 181 79q49 55 76 129.5t27 153.5t-32 129z" />
<glyph unicode="&#xd9;" horiz-adv-x="665" d="M426 731l-123 128h89l91 -128h-57zM93 189q0 61 26 185l62 293h65l-62 -291q-27 -128 -27 -183q0 -67 41 -106.5t110 -39.5q136 0 191 133q15 37 42 164l68 323h65l-70 -328q-25 -117 -37 -155.5t-33 -72.5q-38 -59 -96.5 -90.5t-129.5 -31.5q-97 0 -156 55t-59 145z" />
<glyph unicode="&#xda;" horiz-adv-x="665" d="M405 731l111 128h93l-147 -128h-57zM93 189q0 61 26 185l62 293h65l-62 -291q-27 -128 -27 -183q0 -67 41 -106.5t110 -39.5q136 0 191 133q15 37 42 164l68 323h65l-70 -328q-25 -117 -37 -155.5t-33 -72.5q-38 -59 -96.5 -90.5t-129.5 -31.5q-97 0 -156 55t-59 145z " />
<glyph unicode="&#xdb;" horiz-adv-x="665" d="M296 731l142 128h73l88 -128h-70l-64 85l-100 -85h-69zM93 189q0 61 26 185l62 293h65l-62 -291q-27 -128 -27 -183q0 -67 41 -106.5t110 -39.5q136 0 191 133q15 37 42 164l68 323h65l-70 -328q-25 -117 -37 -155.5t-33 -72.5q-38 -59 -96.5 -90.5t-129.5 -31.5 q-97 0 -156 55t-59 145z" />
<glyph unicode="&#xdc;" horiz-adv-x="665" d="M506 746l19 89h74l-19 -89h-74zM315 746l19 89h75l-19 -89h-75zM93 189q0 61 26 185l62 293h65l-62 -291q-27 -128 -27 -183q0 -67 41 -106.5t110 -39.5q136 0 191 133q15 37 42 164l68 323h65l-70 -328q-25 -117 -37 -155.5t-33 -72.5q-38 -59 -96.5 -90.5t-129.5 -31.5 q-97 0 -156 55t-59 145z" />
<glyph unicode="&#xdd;" horiz-adv-x="597" d="M359 731l111 128h93l-147 -128h-57zM220 0l60 282l-174 385h72l100 -230q16 -37 17 -40l5 -13q2 -8 13 -33q1 -1 3 -7.5t4 -10.5q21 30 74 92l208 242h80l-338 -385l-60 -282h-64z" />
<glyph unicode="&#xde;" horiz-adv-x="490" d="M39 0l142 669h66l-22 -102h34q69 0 99.5 -4.5t57.5 -18.5q38 -20 60 -58.5t22 -86.5q0 -67 -40 -120.5t-106 -75.5q-47 -16 -156 -16h-52l-40 -187h-65zM156 244h38q117 0 159 23q77 41 77 132q0 73 -60 98q-32 14 -113 14h-44z" />
<glyph unicode="&#xdf;" horiz-adv-x="533" d="M27 0l98 460q19 88 33 127t38 68q59 74 162 74q77 0 122.5 -42t45.5 -113q0 -92 -64 -148q-42 -36 -105 -43q135 -24 135 -153q0 -88 -60 -161q-62 -74 -174 -74q-48 0 -108 17l18 57q50 -21 99 -21q66 0 112 52t46 126q0 38 -20 69t-53 45q-31 12 -86 12h-7l11 56 q45 0 74 8q54 14 86.5 55t32.5 94q0 49 -30.5 80t-79.5 31q-83 0 -126 -82q-19 -36 -42 -143l-96 -451h-62z" />
<glyph unicode="&#xe0;" horiz-adv-x="496" d="M289 566l-118 131h87l84 -131h-53zM23 125q0 55 35 96t99 61q54 17 153 17q20 0 61 -3q4 32 4 51q0 43 -29.5 68.5t-79.5 25.5q-67 0 -145 -39l8 66q79 26 144 26q74 0 118.5 -38.5t44.5 -103.5q0 -35 -14 -102l-22 -101q-12 -52 -23 -149h-55q0 18 1 27q1 3 2.5 10.5 l2.5 12.5l4 16q1 3 3 11q-36 -45 -73.5 -64.5t-88.5 -19.5q-67 0 -108.5 36.5t-41.5 95.5zM87 127q0 -37 26.5 -59t70.5 -22q51 0 90 27.5t61 77.5q14 34 26 94l-48 1q-90 1 -144 -17q-82 -30 -82 -102z" />
<glyph unicode="&#xe1;" horiz-adv-x="496" d="M264 566l112 131h92l-150 -131h-54zM23 125q0 55 35 96t99 61q54 17 153 17q20 0 61 -3q4 32 4 51q0 43 -29.5 68.5t-79.5 25.5q-67 0 -145 -39l8 66q79 26 144 26q74 0 118.5 -38.5t44.5 -103.5q0 -35 -14 -102l-22 -101q-12 -52 -23 -149h-55q0 18 1 27q1 3 2.5 10.5 l2.5 12.5l4 16q1 3 3 11q-36 -45 -73.5 -64.5t-88.5 -19.5q-67 0 -108.5 36.5t-41.5 95.5zM87 127q0 -37 26.5 -59t70.5 -22q51 0 90 27.5t61 77.5q14 34 26 94l-48 1q-90 1 -144 -17q-82 -30 -82 -102z" />
<glyph unicode="&#xe2;" horiz-adv-x="496" d="M162 566l133 131h74l77 -131h-63l-59 93l-99 -93h-63zM23 125q0 55 35 96t99 61q54 17 153 17q20 0 61 -3q4 32 4 51q0 43 -29.5 68.5t-79.5 25.5q-67 0 -145 -39l8 66q79 26 144 26q74 0 118.5 -38.5t44.5 -103.5q0 -35 -14 -102l-22 -101q-12 -52 -23 -149h-55 q0 18 1 27q1 3 2.5 10.5l2.5 12.5l4 16q1 3 3 11q-36 -45 -73.5 -64.5t-88.5 -19.5q-67 0 -108.5 36.5t-41.5 95.5zM87 127q0 -37 26.5 -59t70.5 -22q51 0 90 27.5t61 77.5q14 34 26 94l-48 1q-90 1 -144 -17q-82 -30 -82 -102z" />
<glyph unicode="&#xe3;" horiz-adv-x="496" d="M176 591q9 39 32.5 61.5t55.5 22.5q22 0 53 -14l28 -13q24 -11 39 -11q25 0 40 34h38q-23 -85 -87 -85q-24 0 -51 12l-32 15q-22 10 -40 10q-21 0 -38 -32h-38zM23 125q0 55 35 96t99 61q54 17 153 17q20 0 61 -3q4 32 4 51q0 43 -29.5 68.5t-79.5 25.5q-67 0 -145 -39 l8 66q79 26 144 26q74 0 118.5 -38.5t44.5 -103.5q0 -35 -14 -102l-22 -101q-12 -52 -23 -149h-55q0 18 1 27q1 3 2.5 10.5l2.5 12.5l4 16q1 3 3 11q-36 -45 -73.5 -64.5t-88.5 -19.5q-67 0 -108.5 36.5t-41.5 95.5zM87 127q0 -37 26.5 -59t70.5 -22q51 0 90 27.5t61 77.5 q14 34 26 94l-48 1q-90 1 -144 -17q-82 -30 -82 -102z" />
<glyph unicode="&#xe4;" horiz-adv-x="496" d="M360 584l18 87h70l-18 -87h-70zM189 584l18 87h70l-18 -87h-70zM23 125q0 55 35 96t99 61q54 17 153 17q20 0 61 -3q4 32 4 51q0 43 -29.5 68.5t-79.5 25.5q-67 0 -145 -39l8 66q79 26 144 26q74 0 118.5 -38.5t44.5 -103.5q0 -35 -14 -102l-22 -101q-12 -52 -23 -149 h-55q0 18 1 27q1 3 2.5 10.5l2.5 12.5l4 16q1 3 3 11q-36 -45 -73.5 -64.5t-88.5 -19.5q-67 0 -108.5 36.5t-41.5 95.5zM87 127q0 -37 26.5 -59t70.5 -22q51 0 90 27.5t61 77.5q14 34 26 94l-48 1q-90 1 -144 -17q-82 -30 -82 -102z" />
<glyph unicode="&#xe5;" horiz-adv-x="496" d="M320 547q-38 0 -64 26.5t-26 63.5t26.5 63t64.5 26q36 0 62 -26.5t26 -63.5t-26 -63t-63 -26zM320 588q20 0 34 14t14 34t-14 34.5t-34 14.5t-34.5 -14t-14.5 -34t14.5 -34.5t34.5 -14.5zM23 125q0 55 35 96t99 61q54 17 153 17q20 0 61 -3q4 32 4 51q0 43 -29.5 68.5 t-79.5 25.5q-67 0 -145 -39l8 66q79 26 144 26q74 0 118.5 -38.5t44.5 -103.5q0 -35 -14 -102l-22 -101q-12 -52 -23 -149h-55q0 18 1 27q1 3 2.5 10.5l2.5 12.5l4 16q1 3 3 11q-36 -45 -73.5 -64.5t-88.5 -19.5q-67 0 -108.5 36.5t-41.5 95.5zM87 127q0 -37 26.5 -59 t70.5 -22q51 0 90 27.5t61 77.5q14 34 26 94l-48 1q-90 1 -144 -17q-82 -30 -82 -102z" />
<glyph unicode="&#xe6;" horiz-adv-x="773" d="M23 127q0 89 95 132q60 27 180 27q23 0 55 -1q6 36 6 53q0 48 -25 75t-69 27q-56 0 -135 -38l9 61q64 30 131 30q123 0 135 -102q19 46 65.5 73.5t106.5 27.5q80 0 122 -44t42 -128q0 -35 -8 -86h-327q-5 -24 -5 -43q0 -68 37 -107.5t101 -39.5q58 0 119 26l-7 -59 q-68 -20 -121 -20q-87 0 -130 45q-31 32 -40 87q-37 -132 -178 -132q-70 0 -114.5 38t-44.5 98zM415 285h263q3 23 3 38q0 56 -27.5 86t-77.5 30q-75 0 -124 -67q-22 -29 -37 -87zM86 128q0 -37 27 -60.5t69 -23.5q93 0 135 94q17 39 26 96q-64 0 -92 -2q-165 -10 -165 -104 z" />
<glyph unicode="&#xe7;" horiz-adv-x="432" d="M148 93q36 -44 112 -44q40 0 113 23l-8 -60q-66 -17 -106 -17q-5 0 -10 1l-33 -46q9 1 18 1q31 0 50 -16.5t19 -42.5q0 -33 -32.5 -57.5t-76.5 -24.5q-42 0 -88 23l21 30q37 -19 65 -19q24 0 40.5 11.5t16.5 28.5q0 16 -12.5 25t-32.5 9q-10 0 -29 -4l-11 15l49 69 q-79 12 -125 70t-46 145q0 61 26.5 119.5t70.5 96.5q71 61 183 61q59 0 131 -19l-16 -59q-59 25 -119 25q-86 0 -144 -55q-31 -30 -49 -75t-18 -91q0 -76 41 -123z" />
<glyph unicode="&#xe8;" horiz-adv-x="493" d="M303 566l-118 131h87l84 -131h-53zM38 195q0 67 25 131t69 108q60 60 153 60q82 0 130 -45.5t48 -123.5q0 -37 -12 -97h-344q-4 -17 -4 -35q0 -71 38 -110t107 -39q59 0 137 33l-4 -57q-66 -29 -139 -29q-95 0 -149.5 54.5t-54.5 149.5zM115 279h282q4 28 4 47 q0 52 -32 83.5t-85 31.5q-61 0 -106 -43t-63 -119z" />
<glyph unicode="&#xe9;" horiz-adv-x="493" d="M281 566l112 131h92l-150 -131h-54zM38 195q0 67 25 131t69 108q60 60 153 60q82 0 130 -45.5t48 -123.5q0 -37 -12 -97h-344q-4 -17 -4 -35q0 -71 38 -110t107 -39q59 0 137 33l-4 -57q-66 -29 -139 -29q-95 0 -149.5 54.5t-54.5 149.5zM115 279h282q4 28 4 47 q0 52 -32 83.5t-85 31.5q-61 0 -106 -43t-63 -119z" />
<glyph unicode="&#xea;" horiz-adv-x="493" d="M180 566l133 131h74l77 -131h-63l-59 93l-99 -93h-63zM38 195q0 67 25 131t69 108q60 60 153 60q82 0 130 -45.5t48 -123.5q0 -37 -12 -97h-344q-4 -17 -4 -35q0 -71 38 -110t107 -39q59 0 137 33l-4 -57q-66 -29 -139 -29q-95 0 -149.5 54.5t-54.5 149.5zM115 279h282 q4 28 4 47q0 52 -32 83.5t-85 31.5q-61 0 -106 -43t-63 -119z" />
<glyph unicode="&#xeb;" horiz-adv-x="493" d="M375 584l18 87h70l-18 -87h-70zM204 584l18 87h70l-18 -87h-70zM38 195q0 67 25 131t69 108q60 60 153 60q82 0 130 -45.5t48 -123.5q0 -37 -12 -97h-344q-4 -17 -4 -35q0 -71 38 -110t107 -39q59 0 137 33l-4 -57q-66 -29 -139 -29q-95 0 -149.5 54.5t-54.5 149.5z M115 279h282q4 28 4 47q0 52 -32 83.5t-85 31.5q-61 0 -106 -43t-63 -119z" />
<glyph unicode="&#xec;" horiz-adv-x="209" d="M159 566l-100 131h84l64 -131h-48zM27 0l103 485h62l-103 -485h-62z" />
<glyph unicode="&#xed;" horiz-adv-x="209" d="M155 566l92 131h89l-132 -131h-49zM27 0l103 485h62l-103 -485h-62z" />
<glyph unicode="&#xee;" horiz-adv-x="209" d="M59 566l107 131h73l51 -131h-60l-34 96l-77 -96h-60zM27 0l103 485h62l-103 -485h-62z" />
<glyph unicode="&#xef;" horiz-adv-x="209" d="M204 584l18 87h65l-18 -87h-65zM92 584l18 87h65l-18 -87h-65zM27 0l103 485h62l-103 -485h-62z" />
<glyph unicode="&#xf0;" horiz-adv-x="533" d="M39 203q0 119 78.5 204.5t188.5 85.5q63 0 103 -29q19 -15 35 -44q2 46 -21 105.5t-54 87.5l-106 -65l-28 39l89 56l-12 6q-41 21 -85 29l19 45q80 -11 133 -48l105 64l27 -40l-94 -57q90 -87 90 -290q0 -142 -52 -231q-76 -129 -218 -129q-89 0 -143.5 58t-54.5 153z M103 208q0 -75 37 -119t100 -44q101 0 161 106q34 62 34 137q0 68 -36.5 110t-94.5 42q-83 0 -142 -68.5t-59 -163.5z" />
<glyph unicode="&#xf1;" horiz-adv-x="542" d="M209 591q9 39 32.5 61.5t55.5 22.5q22 0 53 -14l28 -13q24 -11 39 -11q25 0 40 34h38q-23 -85 -87 -85q-24 0 -51 12l-32 15q-22 10 -40 10q-21 0 -38 -32h-38zM33 0l74 346q7 30 24 139h61q-3 -28 -14 -72q0 -3 -3 -13q33 50 72 71.5t95 21.5q69 0 109 -38t40 -103 q0 -41 -26 -163l-41 -189h-62l38 176q27 128 27 167q0 45 -26.5 71t-71.5 26q-85 0 -139 -85q-30 -49 -49 -136l-46 -219h-62z" />
<glyph unicode="&#xf2;" horiz-adv-x="533" d="M309 566l-118 131h87l84 -131h-53zM39 201q0 122 78.5 207.5t191.5 85.5q87 0 139.5 -56.5t52.5 -150.5q0 -120 -75 -209q-74 -87 -188 -87q-90 0 -144.5 57.5t-54.5 152.5zM104 205q0 -74 37 -117.5t99 -43.5q86 0 140 74q56 75 56 168q0 71 -36 113t-97 42 q-82 0 -140.5 -69.5t-58.5 -166.5z" />
<glyph unicode="&#xf3;" horiz-adv-x="533" d="M288 566l112 131h92l-150 -131h-54zM39 201q0 122 78.5 207.5t191.5 85.5q87 0 139.5 -56.5t52.5 -150.5q0 -120 -75 -209q-74 -87 -188 -87q-90 0 -144.5 57.5t-54.5 152.5zM104 205q0 -74 37 -117.5t99 -43.5q86 0 140 74q56 75 56 168q0 71 -36 113t-97 42 q-82 0 -140.5 -69.5t-58.5 -166.5z" />
<glyph unicode="&#xf4;" horiz-adv-x="533" d="M195 566l133 131h74l77 -131h-63l-59 93l-99 -93h-63zM39 201q0 122 78.5 207.5t191.5 85.5q87 0 139.5 -56.5t52.5 -150.5q0 -120 -75 -209q-74 -87 -188 -87q-90 0 -144.5 57.5t-54.5 152.5zM104 205q0 -74 37 -117.5t99 -43.5q86 0 140 74q56 75 56 168q0 71 -36 113 t-97 42q-82 0 -140.5 -69.5t-58.5 -166.5z" />
<glyph unicode="&#xf5;" horiz-adv-x="533" d="M210 591q9 39 32.5 61.5t55.5 22.5q22 0 53 -14l28 -13q24 -11 39 -11q25 0 40 34h38q-23 -85 -87 -85q-24 0 -51 12l-32 15q-22 10 -40 10q-21 0 -38 -32h-38zM39 201q0 122 78.5 207.5t191.5 85.5q87 0 139.5 -56.5t52.5 -150.5q0 -120 -75 -209q-74 -87 -188 -87 q-90 0 -144.5 57.5t-54.5 152.5zM104 205q0 -74 37 -117.5t99 -43.5q86 0 140 74q56 75 56 168q0 71 -36 113t-97 42q-82 0 -140.5 -69.5t-58.5 -166.5z" />
<glyph unicode="&#xf6;" horiz-adv-x="533" d="M395 584l18 87h70l-18 -87h-70zM224 584l18 87h70l-18 -87h-70zM39 201q0 122 78.5 207.5t191.5 85.5q87 0 139.5 -56.5t52.5 -150.5q0 -120 -75 -209q-74 -87 -188 -87q-90 0 -144.5 57.5t-54.5 152.5zM104 205q0 -74 37 -117.5t99 -43.5q86 0 140 74q56 75 56 168 q0 71 -36 113t-97 42q-82 0 -140.5 -69.5t-58.5 -166.5z" />
<glyph unicode="&#xf7;" d="M250 434v87h87v-87h-87zM70 314v53h447v-53h-447zM250 160v87h87v-87h-87z" />
<glyph unicode="&#xf8;" horiz-adv-x="533" d="M31 11l49 54q-41 59 -41 138q0 120 78.5 205.5t188.5 85.5q67 0 123 -39l45 50l35 -30l-48 -53q40 -45 40 -139q0 -114 -75 -205q-74 -87 -187 -87q-77 0 -128 41l-45 -51zM126 113l260 299q-35 29 -85 29q-80 0 -138.5 -70t-58.5 -165q0 -51 22 -93zM153 74 q35 -30 88 -30q80 0 137.5 72t57.5 172q0 44 -20 86z" />
<glyph unicode="&#xf9;" d="M322 566l-118 131h87l84 -131h-53zM66 148q0 44 20 136l43 201h62l-43 -201q-19 -88 -19 -126q0 -53 26 -83.5t72 -30.5q86 0 134 90q27 50 50 161l40 190h62l-66 -313q-20 -92 -31 -172h-57q9 67 20 93h-4q-23 -49 -66 -75.5t-96 -26.5q-67 0 -107 42.5t-40 114.5z" />
<glyph unicode="&#xfa;" d="M298 566l112 131h92l-150 -131h-54zM66 148q0 44 20 136l43 201h62l-43 -201q-19 -88 -19 -126q0 -53 26 -83.5t72 -30.5q86 0 134 90q27 50 50 161l40 190h62l-66 -313q-20 -92 -31 -172h-57q9 67 20 93h-4q-23 -49 -66 -75.5t-96 -26.5q-67 0 -107 42.5t-40 114.5z" />
<glyph unicode="&#xfb;" d="M203 566l133 131h74l77 -131h-63l-59 93l-99 -93h-63zM66 148q0 44 20 136l43 201h62l-43 -201q-19 -88 -19 -126q0 -53 26 -83.5t72 -30.5q86 0 134 90q27 50 50 161l40 190h62l-66 -313q-20 -92 -31 -172h-57q9 67 20 93h-4q-23 -49 -66 -75.5t-96 -26.5 q-67 0 -107 42.5t-40 114.5z" />
<glyph unicode="&#xfc;" d="M399 584l18 87h70l-18 -87h-70zM228 584l18 87h70l-18 -87h-70zM66 148q0 44 20 136l43 201h62l-43 -201q-19 -88 -19 -126q0 -53 26 -83.5t72 -30.5q86 0 134 90q27 50 50 161l40 190h62l-66 -313q-20 -92 -31 -172h-57q9 67 20 93h-4q-23 -49 -66 -75.5t-96 -26.5 q-67 0 -107 42.5t-40 114.5z" />
<glyph unicode="&#xfd;" horiz-adv-x="441" d="M246 566l112 131h92l-150 -131h-54zM129 -27q1 1 2.5 4t4 7.5t4.5 7.5l-70 493h63l35 -272q7 -58 9 -79l4.5 -46t3.5 -34q14 34 16 38q17 39 41 82l173 311h70l-272 -479q0 -1 -3.5 -7l-9 -15.5t-9.5 -17.5q-50 -92 -80 -127q-41 -46 -102 -46q-33 0 -63 10l17 52 q19 -9 37 -9q42 0 76 40q17 21 53 87z" />
<glyph unicode="&#xfe;" horiz-adv-x="540" d="M98 27l-47 -219h-61l162 761q17 79 24 136h57l-64 -307q36 53 73.5 74.5t95.5 21.5q82 0 127.5 -50t45.5 -139q0 -133 -78 -230q-68 -84 -176 -84q-114 0 -148 103q0 -2 -0.5 -5t-1 -4.5t-0.5 -2.5l-2 -19q-1 -3 -2.5 -13t-4.5 -23zM138 183q0 -65 31 -102t86 -37 q85 0 133 71q58 83 58 192q0 62 -31 98t-85 36q-79 0 -135.5 -76t-56.5 -182z" />
<glyph unicode="&#xff;" horiz-adv-x="441" d="M347 584l18 87h70l-18 -87h-70zM176 584l18 87h70l-18 -87h-70zM129 -27q1 1 2.5 4t4 7.5t4.5 7.5l-70 493h63l35 -272q7 -58 9 -79l4.5 -46t3.5 -34q14 34 16 38q17 39 41 82l173 311h70l-272 -479q0 -1 -3.5 -7l-9 -15.5t-9.5 -17.5q-50 -92 -80 -127q-41 -46 -102 -46 q-33 0 -63 10l17 52q19 -9 37 -9q42 0 76 40q17 21 53 87z" />
<glyph unicode="&#x152;" horiz-adv-x="859" d="M153 68q-84 82 -84 220q0 92 35.5 172.5t99.5 133.5q96 80 240 80q32 0 74 -3q36 -2 93 -2h273l-11 -56h-270l-52 -241h256l-12 -56h-255l-56 -260h280l-12 -56h-229h-61q-18 0 -44 -2l-31 -2q-11 -1 -36 -1q-124 0 -198 73zM140 293q0 -112 57 -176t155 -64q34 0 69 9 l115 543q-44 11 -86 11q-138 0 -224 -90t-86 -233z" />
<glyph unicode="&#x153;" horiz-adv-x="820" d="M40 193q0 64 24.5 126t66.5 106q64 67 165 67q68 0 109.5 -30.5t49.5 -85.5q48 116 176 116q74 0 117 -43.5t43 -119.5q0 -39 -13 -103h-313q-8 -31 -8 -52q0 -60 38 -95t103 -35q61 0 116 29l-8 -62q-63 -20 -119 -20q-89 0 -135 43q-29 29 -38 80q-55 -123 -190 -123 q-84 0 -134 55t-50 147zM475 277h250q5 32 5 50q0 53 -26.5 82.5t-72.5 29.5q-74 0 -118 -68q-21 -33 -38 -94zM106 196q0 -69 34 -110.5t90 -41.5q94 0 146 108q32 67 32 141q0 69 -31 107.5t-86 38.5q-76 0 -127 -64q-58 -75 -58 -179z" />
<glyph unicode="&#x178;" horiz-adv-x="597" d="M466 746l19 89h74l-19 -89h-74zM275 746l19 89h75l-19 -89h-75zM220 0l60 282l-174 385h72l100 -230q16 -37 17 -40l5 -13q2 -8 13 -33q1 -1 3 -7.5t4 -10.5q21 30 74 92l208 242h80l-338 -385l-60 -282h-64z" />
<glyph unicode="&#x2c6;" horiz-adv-x="500" d="M182 566l133 131h74l77 -131h-63l-59 93l-99 -93h-63z" />
<glyph unicode="&#x2dc;" horiz-adv-x="500" d="M195 591q9 39 32.5 61.5t55.5 22.5q22 0 53 -14l28 -13q24 -11 39 -11q25 0 40 34h38q-23 -85 -87 -85q-24 0 -51 12l-32 15q-22 10 -40 10q-21 0 -38 -32h-38z" />
<glyph unicode="&#x2000;" horiz-adv-x="443" />
<glyph unicode="&#x2001;" horiz-adv-x="887" />
<glyph unicode="&#x2002;" horiz-adv-x="443" />
<glyph unicode="&#x2003;" horiz-adv-x="887" />
<glyph unicode="&#x2004;" horiz-adv-x="295" />
<glyph unicode="&#x2005;" horiz-adv-x="221" />
<glyph unicode="&#x2006;" horiz-adv-x="147" />
<glyph unicode="&#x2007;" horiz-adv-x="147" />
<glyph unicode="&#x2008;" horiz-adv-x="110" />
<glyph unicode="&#x2009;" horiz-adv-x="177" />
<glyph unicode="&#x200a;" horiz-adv-x="49" />
<glyph unicode="&#x2010;" horiz-adv-x="244" d="M1 226l11 53h244l-11 -53h-244z" />
<glyph unicode="&#x2011;" horiz-adv-x="244" d="M1 226l11 53h244l-11 -53h-244z" />
<glyph unicode="&#x2013;" d="M74 226l11 53h391l-11 -53h-391z" />
<glyph unicode="&#x2014;" horiz-adv-x="657" d="M1 226l11 53h658l-12 -53h-657z" />
<glyph unicode="&#x2018;" horiz-adv-x="249" d="M114 489l117 211h64l-99 -211h-82z" />
<glyph unicode="&#x2019;" horiz-adv-x="249" d="M114 489l99 211h82l-117 -211h-64z" />
<glyph unicode="&#x201a;" horiz-adv-x="249" d="M81 82h82l-117 -211h-64z" />
<glyph unicode="&#x201c;" horiz-adv-x="391" d="M256 489l118 211h63l-99 -211h-82zM114 489l117 211h64l-99 -211h-82z" />
<glyph unicode="&#x201d;" horiz-adv-x="391" d="M256 489l99 211h82l-117 -211h-64zM114 489l99 211h82l-117 -211h-64z" />
<glyph unicode="&#x201e;" horiz-adv-x="391" d="M124 -130l99 212h82l-117 -212h-64zM81 82h82l-117 -212h-64z" />
<glyph unicode="&#x2022;" horiz-adv-x="667" d="M335 200q-58 0 -98.5 40.5t-40.5 97.5q0 58 40.5 98.5t99.5 40.5q56 0 96.5 -41t40.5 -98t-40.5 -97.5t-97.5 -40.5z" />
<glyph unicode="&#x2026;" horiz-adv-x="802" d="M583 0l17 81h78l-17 -81h-78zM315 0l18 81h78l-18 -81h-78zM48 0l17 81h78l-17 -81h-78z" />
<glyph unicode="&#x202f;" horiz-adv-x="177" />
<glyph unicode="&#x2039;" horiz-adv-x="370" d="M194 69l-95 215l167 180h60l-167 -190l86 -205h-51z" />
<glyph unicode="&#x203a;" horiz-adv-x="370" d="M64 69l167 190l-86 205h50l96 -215l-167 -180h-60z" />
<glyph unicode="&#x205f;" horiz-adv-x="221" />
<glyph unicode="&#x20ac;" horiz-adv-x="674" d="M55 269l27 51h51q0 4 5 32h-65l27 51h50q40 126 132.5 200.5t209.5 74.5q109 0 176 -64l-33 -62q-53 68 -147 68q-88 0 -157.5 -57.5t-105.5 -159.5h331l-27 -51h-318q-2 -10 -6 -32h308l-27 -51h-285q0 -104 51 -163t140 -59q80 0 145 46l-16 -76q-67 -28 -135 -28 q-121 0 -188.5 74t-67.5 206h-75z" />
<glyph unicode="&#x2122;" horiz-adv-x="817" d="M361 287l81 382h66l64 -260l3 -15l5 -24q3 -12 5 -23l20 33l6 9l9 14l179 266h67l-81 -382h-48l59 281q1 6 4.5 18.5t5.5 20.5q-11 -18 -29 -45l-184 -275h-39l-67 272q-2 7 -3.5 14.5l-3.5 17.5t-4 19q-2 -17 -8 -43l-59 -280h-48zM140 287l72 340h-121l9 41h291l-9 -41 h-122l-72 -340h-48z" />
</font>
</defs>
</svg>
