<?xml version="1.0" standalone="no"?>
<!DOCTYPE svg PUBLIC "-//W3C//DTD SVG 1.1//EN" "http://www.w3.org/Graphics/SVG/1.1/DTD/svg11.dtd" >
<svg xmlns="http://www.w3.org/2000/svg">
<metadata>
This is a custom SVG webfont generated by Fontspring.
Designer    : FontSite.com
Foundry URL : http://www.fontsite.com
</metadata>
<defs>
<font id="webfont" horiz-adv-x="500" >
<font-face units-per-em="1000" ascent="758" descent="-242" />
<missing-glyph horiz-adv-x="250" />
<glyph unicode=" "  horiz-adv-x="250" />
<glyph unicode="&#x09;" horiz-adv-x="250" />
<glyph unicode="&#xa0;" horiz-adv-x="250" />
<glyph unicode="!" horiz-adv-x="360" d="M152 167l-11 360h79l-12 -360h-56zM141 0v80h79v-80h-79z" />
<glyph unicode="&#x22;" horiz-adv-x="293" d="M189 453l-9 267h65l-9 -267h-47zM57 453l-9 267h65l-9 -267h-47z" />
<glyph unicode="#" horiz-adv-x="536" d="M96 0l32 217h-92l7 50h93l22 150h-92l7 50h93l30 200h53l-30 -200h143l30 200h53l-30 -200h90l-8 -50h-89l-23 -150h90l-8 -50h-89l-33 -217h-53l32 217h-142l-33 -217h-53zM189 267h143l22 150h-142z" />
<glyph unicode="$" horiz-adv-x="443" d="M73 14l6 60q61 -35 116 -36v194l-24 12q-58 29 -79 56.5t-21 70.5q0 52 34.5 84.5t95.5 40.5v67h39v-65q53 -1 107 -20l-8 -56q-54 26 -99 27v-175l14 -7q77 -42 96.5 -66.5t19.5 -69.5q0 -56 -37 -93.5t-99 -45.5v-68h-39v65q-61 1 -122 25zM201 296v149 q-32 -8 -51 -27.5t-19 -44.5q0 -23 14.5 -39t55.5 -38zM234 41q35 8 55.5 31t20.5 55q0 27 -12.5 42t-63.5 43v-171z" />
<glyph unicode="%" horiz-adv-x="846" d="M205 -42l380 751h55l-381 -751h-54zM202 323q-72 0 -112 46t-40 129q0 86 41.5 136t113.5 50q73 0 112.5 -46t39.5 -131t-41.5 -134.5t-113.5 -49.5zM202 373q45 0 69.5 35t24.5 99q0 127 -89 127q-96 0 -96 -136q0 -125 91 -125zM489 158q0 87 41.5 136.5t114.5 49.5 q72 0 111.5 -46t39.5 -131t-41.5 -134.5t-113.5 -49.5t-112 46t-40 129zM550 157q0 -60 23.5 -92t67.5 -32q45 0 69.5 35t24.5 99q0 127 -89 127q-96 0 -96 -137z" />
<glyph unicode="&#x26;" horiz-adv-x="543" d="M38 150q0 111 144 162q-72 64 -72 135q0 54 42.5 88.5t109.5 34.5q59 0 97.5 -34t38.5 -86q0 -47 -30.5 -83.5t-97.5 -68.5l24 -25l111 -120q40 64 46 159h59q-6 -122 -67 -201l102 -111h-81l-56 63q-75 -74 -176 -74q-88 0 -141 44t-53 117zM235 332q57 29 80.5 54.5 t23.5 57.5t-23 52.5t-58 20.5q-40 0 -64 -21t-24 -56q0 -25 13.5 -47.5t51.5 -60.5zM102 151q0 -47 38 -78t95 -31q79 0 139 63l-158 170q-61 -26 -87.5 -55t-26.5 -69z" />
<glyph unicode="'" horiz-adv-x="161" d="M57 453l-9 267h65l-9 -267h-47z" />
<glyph unicode="(" horiz-adv-x="305" d="M48 263q0 159 98 353q12 25 58 104h50q-143 -269 -143 -457q0 -195 148 -466h-50q-161 259 -161 466z" />
<glyph unicode=")" horiz-adv-x="304" d="M46 -203q147 272 147 467q0 186 -142 456h50q45 -80 63 -116q92 -190 92 -341q0 -207 -160 -466h-50z" />
<glyph unicode="*" horiz-adv-x="536" d="M188 382l-45 33l88 116l-141 40l17 54l137 -51l-5 146h57l-5 -146l138 51l18 -54l-140 -40l91 -115l-47 -35l-82 122z" />
<glyph unicode="+" horiz-adv-x="536" d="M242 123v191h-197v53h197v190h53v-190h197v-53h-197v-191h-53z" />
<glyph unicode="," horiz-adv-x="268" d="M113 82h78l-73 -211h-61z" />
<glyph unicode="-" horiz-adv-x="220" d="M0 222v51h220v-51h-220z" />
<glyph unicode="." horiz-adv-x="268" d="M95 0v82h79v-82h-79z" />
<glyph unicode="/" horiz-adv-x="416" d="M-26 -203l350 923h57l-350 -923h-57z" />
<glyph unicode="0" horiz-adv-x="549" d="M48 241q0 117 62.5 186t167.5 69q101 0 162 -69.5t61 -184.5q0 -114 -62 -183.5t-163 -69.5q-103 0 -165.5 69.5t-62.5 182.5zM115 240q0 -86 45.5 -142.5t114.5 -56.5q68 0 113.5 57t45.5 143q0 88 -44.5 145.5t-112.5 57.5q-72 0 -117 -56.5t-45 -147.5z" />
<glyph unicode="1" horiz-adv-x="345" d="M177 0v383q0 9 4 31q-10 -13 -37 -36l-77 -66l-37 44l154 127h56v-483h-63z" />
<glyph unicode="2" horiz-adv-x="490" d="M33 0v54q57 36 150 106q90 67 121.5 104t31.5 76q0 41 -32 68t-81 27q-71 0 -157 -48l-12 65q95 44 174 44q76 0 125.5 -42.5t49.5 -106.5q0 -68 -51 -123t-218 -167h301v-57h-402z" />
<glyph unicode="3" horiz-adv-x="493" d="M32 -101q83 -35 153 -35q80 0 131 38.5t51 99.5q0 42 -26.5 75.5t-67.5 44.5q-40 10 -120 10h-33v57h36q99 0 152 32t53 91q0 52 -42 83.5t-110 31.5q-69 0 -148 -34l-6 64q74 29 157 29q97 0 156.5 -46.5t59.5 -120.5q0 -69 -58 -118q-32 -28 -84 -38q65 -6 106.5 -51.5 t41.5 -110.5q0 -87 -67.5 -139.5t-179.5 -52.5q-80 0 -163 26z" />
<glyph unicode="4" horiz-adv-x="523" d="M23 0v60l304 423h82l1 -426h100v-57h-100v-185h-63v185h-324zM89 57h258v310q0 25 4 67q-18 -39 -32 -59z" />
<glyph unicode="5" horiz-adv-x="510" d="M71 -102q75 -34 143 -34q83 0 132.5 44.5t49.5 117.5q0 70 -45 108.5t-126 38.5q-65 0 -148 -21l4 331h349v-51h-289l-2 -220q44 16 102 16q104 0 163 -54t59 -148q0 -101 -67 -159t-183 -58q-67 0 -143 25z" />
<glyph unicode="6" horiz-adv-x="524" d="M270 -11q-109 0 -165.5 79.5t-56.5 231.5q0 181 73.5 276.5t213.5 95.5q56 0 124 -18l-7 -61q-64 24 -118 24q-70 0 -123 -39.5t-79 -110.5q-19 -54 -22 -138q17 27 36 44q56 48 137 48q90 0 145.5 -59t55.5 -155t-60 -157t-154 -61zM123 208q0 -73 40.5 -118.5 t104.5 -45.5q67 0 108 45.5t41 119.5q0 69 -40 113t-103 44q-75 0 -117 -52q-34 -43 -34 -106z" />
<glyph unicode="7" horiz-adv-x="466" d="M79 -185l285 610h-343v58h412v-58l-283 -610h-71z" />
<glyph unicode="8" horiz-adv-x="544" d="M48 174q0 63 44 109t120 62q-61 17 -102 66t-41 106q0 71 57.5 115.5t150.5 44.5q86 0 140 -43t54 -111q0 -69 -68 -130q-39 -34 -79 -46q52 -7 101 -43q71 -52 71 -133q0 -83 -61 -132.5t-163 -49.5q-100 0 -162 51.5t-62 133.5zM183 420q28 -22 95 -53q9 6 20 12.5 t16 10.5q90 62 90 128q0 44 -37.5 74t-93.5 30q-60 0 -98.5 -30.5t-38.5 -79.5q0 -53 47 -92zM115 176q0 -57 45 -94.5t114 -37.5q66 0 110.5 36t44.5 90q0 49 -40 85t-129 67q-81 -35 -113 -67t-32 -79z" />
<glyph unicode="9" horiz-adv-x="520" d="M69 -112q65 -23 119 -23q70 0 123 39t78 110q19 53 22 138q-17 -27 -36 -44q-56 -48 -137 -48q-89 0 -145 59t-56 154q0 96 60 157t154 61q109 0 165 -78t56 -230q0 -184 -72.5 -278.5t-213.5 -94.5q-54 0 -123 17zM247 115q68 0 109.5 43t41.5 114q0 73 -40.5 118.5 t-104.5 45.5q-67 0 -108 -45.5t-41 -118.5q0 -70 40 -113.5t103 -43.5z" />
<glyph unicode=":" horiz-adv-x="268" d="M95 406v78h79v-78h-79zM95 0v79h79v-79h-79z" />
<glyph unicode=";" horiz-adv-x="268" d="M103 403v82h78v-82h-78zM113 82h78l-73 -211h-61z" />
<glyph unicode="&#x3c;" d="M33 309v53l433 199v-60l-368 -165l368 -166v-59z" />
<glyph unicode="=" horiz-adv-x="536" d="M45 380v53h447v-53h-447zM45 247v53h447v-53h-447z" />
<glyph unicode="&#x3e;" d="M34 110v61l368 165l-368 165v60l433 -199v-53z" />
<glyph unicode="?" horiz-adv-x="414" d="M174 167q1 50 12.5 71t71.5 87q36 38 36 80q0 34 -26 55t-70 21q-36 0 -96 -19l-5 58q54 17 105 17q69 0 110.5 -35t41.5 -93q0 -43 -28 -81q-12 -17 -71 -85q-24 -29 -24 -68v-8h-57zM164 0v80h79v-80h-79z" />
<glyph unicode="@" horiz-adv-x="772" d="M154 88q-99 99 -99 245q0 145 100.5 245t246.5 100q136 0 226 -84.5t90 -212.5q0 -95 -49.5 -166.5t-115.5 -71.5q-60 0 -74 62q-44 -65 -121 -65q-62 0 -102 46t-40 117q0 85 51.5 144.5t125.5 59.5q40 0 65 -16t45 -53l12 57h51l-42 -216q-3 -16 -6 -47q-1 -19 9.5 -32 t27.5 -13q45 0 80 59t35 134q0 110 -75.5 180.5t-192.5 70.5q-124 0 -210 -86.5t-86 -211.5q0 -124 81 -208q82 -88 225 -88q113 0 215 51l16 -47q-111 -52 -230 -52q-161 0 -259 99zM272 304q0 -50 26 -81.5t69 -31.5q49 0 82.5 47t33.5 116q0 47 -23.5 73.5t-63.5 26.5 q-51 0 -87.5 -44t-36.5 -106z" />
<glyph unicode="A" horiz-adv-x="641" d="M11 0l269 667h77l273 -667h-69l-73 179h-340l-72 -179h-65zM171 236h293l-121 302q-16 39 -25 71l-27 -71z" />
<glyph unicode="B" horiz-adv-x="537" d="M86 0v667h137q89 0 140 -24q94 -46 94 -146q0 -75 -62 -120q-21 -16 -62 -27q64 -7 104.5 -53.5t40.5 -113.5q0 -46 -21 -85t-59 -62q-61 -36 -174 -36h-138zM150 375h71q79 0 120 28q49 32 49 93q0 70 -68 99q-32 15 -99 15h-73v-235zM150 57h72q97 0 143 34 q46 35 46 95q0 69 -55 105q-24 16 -51.5 21.5t-82.5 5.5h-72v-261z" />
<glyph unicode="C" horiz-adv-x="589" d="M149 86q-44 43 -69.5 110.5t-25.5 140.5q0 151 95 242t253 91q80 0 149 -27l-5 -61q-73 31 -149 31q-125 0 -200.5 -77.5t-75.5 -204.5t75 -202t203 -75q82 0 148 31l3 -65q-65 -23 -144 -23q-166 0 -257 89z" />
<glyph unicode="D" horiz-adv-x="642" d="M86 0v667h91q104 0 160 -9t99 -33q70 -38 111 -117t41 -177q0 -93 -39 -166t-110 -114q-87 -51 -249 -51h-104zM150 57h68q143 0 223 73t80 204q0 80 -31 142.5t-87 95.5q-65 38 -190 38h-63v-553z" />
<glyph unicode="E" horiz-adv-x="485" d="M86 0v664h327v-57h-263v-236h251v-57h-251v-257h275v-57h-339z" />
<glyph unicode="F" horiz-adv-x="442" d="M86 0v663h316v-57h-252v-235h242v-57h-242v-314h-64z" />
<glyph unicode="G" horiz-adv-x="677" d="M176 69q-122 99 -122 269q0 150 94.5 241t251.5 91q98 0 172 -31l-8 -60q-88 34 -165 34q-125 0 -201.5 -76t-76.5 -200q0 -127 79.5 -205t208.5 -78q62 0 126 21v225h-156v57h220v-324q-96 -36 -199 -36q-136 0 -224 72z" />
<glyph unicode="H" horiz-adv-x="643" d="M86 0v667h64v-290h343v290h64v-667h-64v320h-343v-320h-64z" />
<glyph unicode="I" horiz-adv-x="249" d="M93 0v667h64v-667h-64z" />
<glyph unicode="J" horiz-adv-x="340" d="M31 4l2 57q37 -9 58 -9q50 0 76 35q14 20 19 46t5 81v453h64v-453q0 -94 -18 -137q-36 -82 -138 -82q-29 0 -68 9z" />
<glyph unicode="K" horiz-adv-x="581" d="M86 0v667h64v-299l304 299h85l-321 -315l352 -352h-91l-329 335v-335h-64z" />
<glyph unicode="L" horiz-adv-x="444" d="M86 0v667h64v-610h271v-57h-335z" />
<glyph unicode="M" horiz-adv-x="859" d="M86 0v667h96l174 -415q57 -136 70 -195q12 53 77 206l172 404h98v-667h-64v415q0 160 6 219q-29 -87 -81 -210l-181 -424h-56l-179 424q-70 167 -80 210q6 -43 8 -106q2 -64 2 -77q2 -44 2 -47v-404h-64z" />
<glyph unicode="N" horiz-adv-x="654" d="M86 0v667h75l275 -452q65 -107 85 -171q-6 37 -7.5 51t-3.5 59t-2 125v388h60v-667h-72l-272 445q-72 117 -86 167q6 -54 6 -79q2 -80 2 -118v-415h-60z" />
<glyph unicode="O" horiz-adv-x="703" d="M134 87q-79 100 -79 244q0 145 75 245q78 102 221 102q133 0 215 -96.5t82 -254.5q0 -154 -80.5 -246t-215.5 -92q-139 0 -218 98zM122 331q0 -128 63 -206.5t167 -78.5q103 0 166 77t63 204q0 126 -60 211q-28 39 -71.5 61t-93.5 22q-108 0 -171 -78t-63 -212z" />
<glyph unicode="P" horiz-adv-x="487" d="M86 0v667h126q107 0 158 -31q41 -25 64.5 -67.5t23.5 -92.5q0 -96 -77 -149q-60 -41 -170 -41h-61v-286h-64zM150 343h60q92 0 136 35q45 36 45 99q0 75 -63 112q-38 21 -116 21h-62v-267z" />
<glyph unicode="Q" horiz-adv-x="703" d="M157 61q-47 44 -75 118.5t-28 157.5q0 143 76 241q77 100 218 100q143 0 221 -98q80 -100 80 -249q0 -82 -27 -153.5t-75 -117.5q-22 -22 -78 -51l153 -138h-90l-130 121q-42 -3 -50 -3q-118 0 -195 72zM351 46q104 0 167.5 78.5t63.5 206.5q0 129 -62.5 209.5 t-162.5 80.5q-108 0 -172 -77.5t-64 -208.5t63 -210t167 -79z" />
<glyph unicode="R" horiz-adv-x="539" d="M86 0v667h129q115 0 162 -28q80 -49 80 -145q0 -89 -78 -138q-31 -19 -74 -24q36 -6 53 -23.5t44 -75.5l106 -233h-71l-91 204q-20 45 -31 61t-29 27q-25 15 -83 15h-53v-307h-64zM150 364h53q97 0 141 36q46 38 46 93q0 31 -16.5 58.5t-42.5 41.5q-34 17 -117 17h-64 v-246z" />
<glyph unicode="S" horiz-adv-x="492" d="M67 18l6 68q76 -40 149 -40q66 0 107.5 35t41.5 91q0 46 -34 80q-13 13 -72 46l-78 43q-69 38 -96.5 75.5t-27.5 93.5q0 78 56 123t152 45q67 0 135 -23l-8 -63q-66 29 -125 29q-62 0 -102.5 -30.5t-40.5 -78.5q0 -35 20.5 -60t69.5 -52l73 -40q69 -38 95 -63 q50 -47 50 -121q0 -83 -60 -135t-156 -52q-78 0 -155 29z" />
<glyph unicode="T" horiz-adv-x="492" d="M215 0v606h-200v57h463v-57h-199v-606h-64z" />
<glyph unicode="U" horiz-adv-x="655" d="M106 130q-20 51 -20 159v378h64v-378q0 -99 19 -141q20 -46 64.5 -74t96.5 -28q57 0 103.5 34.5t64.5 89.5q11 36 11 119v378h60v-380q0 -104 -18 -151q-26 -71 -84 -109t-138 -38q-79 0 -138.5 37.5t-84.5 103.5z" />
<glyph unicode="V" horiz-adv-x="595" d="M265 0l-254 667h70l187 -504l26 -73q4 -12 8 -34q3 20 34 107l184 504h65l-249 -667h-71z" />
<glyph unicode="W" horiz-adv-x="912" d="M206 0l-195 667h67l101 -354q60 -211 69 -276q12 79 70 281l99 349h81l102 -349q61 -206 73 -284q4 46 17 101q14 58 50 186l98 346h64l-191 -667h-80l-130 444q-36 122 -44 187q-10 -64 -44 -187l-127 -444h-80z" />
<glyph unicode="X" horiz-adv-x="598" d="M13 0l245 350l-227 317h77l154 -218q32 -45 38 -58q11 21 39 61l150 215h74l-225 -317l246 -350h-79l-169 246q-29 41 -38 63q-9 -18 -40 -63l-171 -246h-74z" />
<glyph unicode="Y" horiz-adv-x="588" d="M264 0v281l-253 386h77l164 -256l29 -45q9 -14 16 -30q5 10 17 32l18 27l173 272h73l-250 -384v-283h-64z" />
<glyph unicode="Z" horiz-adv-x="497" d="M30 0v57l350 549h-341v57h414v-59l-348 -547h358v-57h-433z" />
<glyph unicode="[" horiz-adv-x="317" d="M140 -159h93v-44h-149v923h149v-43h-93v-836z" />
<glyph unicode="\" horiz-adv-x="416" d="M385 -203l-350 923h57l350 -923h-57z" />
<glyph unicode="]" horiz-adv-x="318" d="M84 -159h94v836h-94v43h150v-923h-150v44z" />
<glyph unicode="^" d="M30 372l181 296h79l180 -296h-66l-155 249l-153 -249h-66z" />
<glyph unicode="_" d="M0 -70h500v-56h-500v56z" />
<glyph unicode="`" d="M244 594l-117 131h87l84 -131h-54z" />
<glyph unicode="a" horiz-adv-x="523" d="M7 0l219 527h67l222 -527h-65l-59 138h-264l-58 -138h-62zM150 193h217l-54 133q-26 64 -28 70l-27 70q-33 -89 -54 -140z" />
<glyph unicode="b" horiz-adv-x="472" d="M79 0v527h131q73 0 114 -19q79 -36 79 -117t-90 -114q107 -32 107 -131q0 -80 -67 -118q-50 -28 -142 -28h-132zM140 297h69q64 0 97.5 24t33.5 68q0 54 -51 78q-26 12 -78 12h-71v-182zM140 48h70q75 0 112 27q35 27 35 73q0 52 -42 81q-31 20 -106 20h-69v-201z" />
<glyph unicode="c" horiz-adv-x="484" d="M119 66q-36 35 -56.5 88.5t-20.5 111.5q0 120 77 192.5t205 72.5q64 0 126 -25l-5 -59q-63 31 -126 31q-97 0 -155.5 -59.5t-58.5 -157.5t58 -155.5t158 -57.5q67 0 125 32l4 -62q-57 -23 -123 -23q-134 0 -208 71z" />
<glyph unicode="d" horiz-adv-x="533" d="M79 0v527h83q144 0 206 -33q57 -30 90 -93t33 -140q0 -73 -31.5 -131t-88.5 -90q-70 -40 -200 -40h-92zM140 55h53q112 0 173.5 55t61.5 154q0 61 -24 108t-67 71q-51 29 -147 29h-50v-417z" />
<glyph unicode="e" horiz-adv-x="419" d="M79 0v525h276v-55h-215v-172h206v-55h-206v-188h224v-55h-285z" />
<glyph unicode="f" horiz-adv-x="382" d="M79 0v524h268v-55h-207v-171h199v-55h-199v-243h-61z" />
<glyph unicode="g" horiz-adv-x="559" d="M42 266q0 120 76.5 192.5t202.5 72.5q81 0 146 -28l-9 -58q-78 33 -137 33q-97 0 -156.5 -58.5t-59.5 -153.5q0 -97 61.5 -157.5t160.5 -60.5q51 0 99 20v164h-120v55h181v-260q-83 -32 -165 -32q-125 0 -202.5 75t-77.5 196z" />
<glyph unicode="h" horiz-adv-x="545" d="M79 0v527h61v-224h266v224h61v-527h-61v248h-266v-248h-61z" />
<glyph unicode="i" horiz-adv-x="230" d="M85 0v527h61v-527h-61z" />
<glyph unicode="j" horiz-adv-x="295" d="M27 4v55q37 -11 54 -11q39 0 57 26q19 25 19 97v356h60v-356q0 -76 -15 -109q-30 -67 -113 -67q-26 0 -62 9z" />
<glyph unicode="k" horiz-adv-x="503" d="M79 0v527h61v-244l253 244h82l-260 -250l283 -277h-86l-272 270v-270h-61z" />
<glyph unicode="l" horiz-adv-x="381" d="M79 0v527h61v-472h221v-55h-282z" />
<glyph unicode="m" horiz-adv-x="709" d="M79 0v527h80l197 -455l189 455h86v-527h-61v200q0 98 3 257l-191 -457h-51l-198 457q3 -157 3 -257v-200h-57z" />
<glyph unicode="n" horiz-adv-x="553" d="M79 0v527h67l275 -444q-3 119 -3 225v219h57v-527h-66l-275 443q3 -177 3 -225v-218h-58z" />
<glyph unicode="o" horiz-adv-x="568" d="M43 261q0 116 61 194q63 82 179 82q109 0 175.5 -77t66.5 -202q0 -122 -65.5 -195.5t-174.5 -73.5q-107 0 -174.5 75.5t-67.5 196.5zM106 261q0 -99 49 -159t129 -60t129 59.5t49 156.5t-47 163q-44 63 -127 63q-84 0 -133 -60t-49 -163z" />
<glyph unicode="p" horiz-adv-x="415" d="M78 0v527h110q87 0 129 -24q34 -20 53.5 -55t19.5 -75q0 -77 -64 -120q-48 -32 -139 -32h-48v-221h-61zM139 276h47q74 0 106 26q35 26 35 72q0 56 -48 82q-28 16 -91 16h-49v-196z" />
<glyph unicode="q" horiz-adv-x="569" d="M126 47q-38 35 -60.5 94t-22.5 125q0 122 66 196.5t173 74.5q110 0 177 -75.5t67 -199.5q0 -65 -22 -121.5t-62 -92.5q-18 -17 -57 -37l123 -111h-85l-101 93q-24 -4 -41 -4q-92 0 -155 58zM106 264q0 -100 49 -161t129 -61q81 0 130 60t49 159t-48.5 161t-125.5 62 q-84 0 -133.5 -59.5t-49.5 -160.5z" />
<glyph unicode="r" horiz-adv-x="458" d="M79 0v527h112q94 0 132 -23q67 -39 67 -116q0 -44 -29 -79.5t-75 -47.5q17 -6 28.5 -20.5t29.5 -52.5l88 -188h-67l-74 162q-21 47 -42 61.5t-67 14.5h-42v-238h-61zM140 293h42q76 0 110 26q35 28 35 68q0 23 -12.5 42.5t-32.5 29.5q-25 13 -92 13h-50v-179z" />
<glyph unicode="s" horiz-adv-x="419" d="M59 16l6 64q69 -38 127 -38q51 0 83 26.5t32 69.5q0 34 -27 59q-10 9 -57 34l-61 33q-61 33 -83 61.5t-22 74.5q0 63 46.5 100t125.5 37q61 0 117 -22l-8 -60q-57 29 -107 29q-48 0 -79.5 -23.5t-31.5 -58.5q0 -25 15.5 -42t57.5 -41l56 -31q75 -41 91 -61q30 -36 30 -85 q0 -69 -49.5 -111t-130.5 -42q-64 0 -131 27z" />
<glyph unicode="t" horiz-adv-x="405" d="M173 0v469h-161v55h381v-55h-159v-469h-61z" />
<glyph unicode="u" horiz-adv-x="553" d="M95 104q-17 41 -17 125v298h61v-298q0 -75 15 -108q16 -34 50 -55.5t74 -21.5q44 0 80 26t50 67q9 27 9 92v298h58v-300q0 -81 -15 -119q-21 -55 -69 -86t-113 -31q-64 0 -113 30t-70 83z" />
<glyph unicode="v" horiz-adv-x="487" d="M214 0l-207 527h66l152 -393q2 -5 21 -71q13 48 21 71l150 393h62l-203 -527h-62z" />
<glyph unicode="w" horiz-adv-x="731" d="M166 0l-158 527h63l131 -464l130 464h70l134 -464l127 464h61l-154 -527h-70l-134 463l-131 -463h-69z" />
<glyph unicode="x" horiz-adv-x="493" d="M9 0l200 276l-186 251h73l127 -172q18 -25 25 -36q8 14 26 39l123 169h72l-185 -251l200 -276h-74l-139 192q-17 24 -25 40q-8 -16 -26 -40l-140 -192h-71z" />
<glyph unicode="y" horiz-adv-x="485" d="M213 0v221l-206 306h72l135 -201q15 -24 30 -56q15 33 32 58l133 199h69l-204 -304v-223h-61z" />
<glyph unicode="z" horiz-adv-x="415" d="M26 0v51l279 418h-272v55h344v-53l-277 -416h285v-55h-359z" />
<glyph unicode="{" d="M175 -55v195q0 44 -12.5 65.5t-44.5 31.5v41q31 9 44 31t13 65v210q0 71 31.5 100.5t109.5 34.5l15 1v-43q-58 -1 -79 -22t-21 -77v-207q0 -47 -11 -72t-39 -42q28 -16 39 -42.5t11 -73.5v-199q0 -60 20.5 -81t79.5 -22v-43l-16 1q-79 5 -109.5 36t-30.5 112z" />
<glyph unicode="|" d="M220 -167v834h60v-834h-60z" />
<glyph unicode="}" d="M169 -161q58 1 78.5 22t20.5 77v207q0 47 11 72t39 42q-28 16 -39 42.5t-11 73.5v199q0 60 -20.5 81t-78.5 22v43l15 -1q79 -5 109.5 -36t30.5 -112v-195q0 -44 13 -65.5t45 -31.5v-41q-31 -9 -44.5 -31t-13.5 -65v-210q0 -71 -31.5 -100.5t-108.5 -34.5l-15 -1v43z" />
<glyph unicode="~" horiz-adv-x="667" d="M131 588l-37 23q31 60 61 85t73 25q39 0 114 -37q69 -34 99 -34q29 0 49.5 16t45.5 57l37 -22q-54 -108 -139 -108q-22 0 -47 9t-92 41q-47 21 -71 21q-52 0 -93 -76z" />
<glyph unicode="&#xa1;" horiz-adv-x="360" d="M141 447v80h79v-80h-79zM141 0l11 360h57l11 -360h-79z" />
<glyph unicode="&#xa2;" horiz-adv-x="536" d="M196 130q-45 34 -71 88.5t-26 116.5q0 71 33 129t89 86q34 18 82 26v81h45v-79q58 0 108 -18l-3 -61q-46 19 -105 23v-380q66 3 108 25l6 -59q-47 -20 -114 -20v-83h-45v83q-64 10 -107 42zM303 146v371q-137 -37 -137 -181q0 -72 36 -122t101 -68z" />
<glyph unicode="&#xa3;" horiz-adv-x="536" d="M67 0v57h99v271h-88v51h88v42q0 92 22 144q20 49 68.5 76.5t113.5 27.5q48 0 111 -21l-9 -58q-59 24 -101 24q-88 0 -123 -70q-19 -38 -19 -123v-42h161v-51h-161v-271h239v-57h-401z" />
<glyph unicode="&#xa4;" horiz-adv-x="536" d="M80 68l-32 32l73 74q-40 51 -40 114q0 60 40 113l-75 74l32 32l75 -74q54 41 115 41t114 -40l75 73l32 -32l-74 -74q40 -53 40 -114q0 -62 -40 -113l75 -74l-32 -32l-75 74q-52 -40 -114 -40q-59 0 -115 40zM268 155q55 0 93.5 39t38.5 94q0 54 -38.5 93.5t-91.5 39.5 q-56 0 -95 -39t-39 -95q0 -54 38.5 -93t93.5 -39z" />
<glyph unicode="&#xa5;" horiz-adv-x="536" d="M238 0v235h-197v51h194l-57 97h-147v51h117l-137 233h73l146 -253q12 -20 26 -47q9 -15 15 -31q4 10 16 33q14 24 16 28l11 20l145 250h67l-136 -233h116v-51h-146l-57 -97h193v-51h-195v-235h-63z" />
<glyph unicode="&#xa6;" d="M220 337v330h60v-330h-60zM220 153h60v-320h-60v320z" />
<glyph unicode="&#xa7;" horiz-adv-x="536" d="M69 -108q95 -45 172 -45q72 0 115 29.5t43 79.5q0 51 -41 83q-18 13 -36 22.5t-109 51.5q-145 67 -145 163q0 78 78 137l36 24q-22 11 -33 17q-28 18 -45.5 51.5t-17.5 69.5q0 37 19.5 71.5t50.5 53.5q51 31 132 31q75 0 156 -28l-8 -63q-75 34 -141 34q-62 0 -100.5 -28 t-38.5 -73q0 -35 24 -59.5t92 -57.5l69 -34q137 -67 137 -170q0 -87 -97 -151q26 -12 37 -22q24 -19 39 -52t15 -67q0 -79 -63 -126.5t-167 -47.5q-83 0 -183 39zM166 219q21 -20 90 -53l82 -39q74 59 74 119q0 37 -23.5 63.5t-81.5 56.5l-87 45q-49 -37 -67.5 -63 t-18.5 -58q0 -42 32 -71z" />
<glyph unicode="&#xa8;" d="M301 612v87h70v-87h-70zM130 612v87h70v-87h-70z" />
<glyph unicode="&#xa9;" horiz-adv-x="796" d="M55 333q0 144 101.5 244.5t246.5 100.5q139 0 239 -101.5t100 -243.5t-100.5 -243t-242.5 -101t-243 101t-101 243zM93 333q0 -128 90 -219t216 -91t215.5 91t89.5 219q0 127 -89 219t-212 92q-130 0 -220 -90.5t-90 -220.5zM209 340q0 86 58.5 138.5t154.5 52.5 q52 0 95 -17l-4 -43l-6 2q-49 17 -87 17q-73 0 -117 -42t-44 -112q0 -69 44 -109.5t118 -40.5q47 0 93 20l2 -47q-43 -14 -91 -14q-100 0 -158 52.5t-58 142.5z" />
<glyph unicode="&#xaa;" horiz-adv-x="343" d="M151 374q-47 0 -75 24t-28 64q0 100 172 100q14 0 24 -1q0 40 -17 58t-55 18t-90 -28l1 48q48 21 98 21q74 0 99 -52q10 -22 11 -78l1 -48q0 -15 1.5 -56.5t1.5 -60.5v-5h-45q-1 12 -1 23v17l-6 -7q-31 -37 -92 -37zM156 412q54 0 77 42q11 19 11 61v7q-12 1 -19 1 q-128 0 -128 -63q0 -21 16.5 -34.5t42.5 -13.5zM48 293v41h247v-41h-247z" />
<glyph unicode="&#xab;" horiz-adv-x="536" d="M261 247l133 196h57l-127 -196l127 -197h-58zM226 50l-133 197l134 196h56l-127 -196l127 -197h-57z" />
<glyph unicode="&#xac;" d="M33 211v56h433v-267h-60v211h-373z" />
<glyph unicode="&#xad;" horiz-adv-x="220" d="M0 222v51h220v-51h-220z" />
<glyph unicode="&#xae;" horiz-adv-x="796" d="M55 333q0 144 101.5 244.5t246.5 100.5q139 0 239 -101.5t100 -243.5t-100.5 -243t-242.5 -101t-243 101t-101 243zM93 333q0 -128 90 -219t216 -91t215.5 91t89.5 219q0 127 -89 219t-212 92q-130 0 -220 -90.5t-90 -220.5zM284 147v382h83q70 0 99 -16q50 -30 50 -85 q0 -32 -20 -57t-54 -35q21 -10 41 -52l66 -137h-52l-56 117q-18 38 -31 46.5t-51 8.5h-27v-172h-48zM332 360h27q57 0 81 19q26 19 26 48q0 35 -33 52q-18 9 -67 9h-34v-128z" />
<glyph unicode="&#xaf;" d="M124 628v49h252v-49h-252z" />
<glyph unicode="&#xb0;" horiz-adv-x="374" d="M187 460q-58 0 -98.5 40t-40.5 97q0 55 41 94.5t98 39.5q58 0 98.5 -39.5t40.5 -95.5t-40.5 -96t-98.5 -40zM187 499q40 0 69 28.5t29 68.5t-28.5 68t-69.5 28q-40 0 -69 -28t-29 -67q0 -41 28.5 -69.5t69.5 -28.5z" />
<glyph unicode="&#xb1;" horiz-adv-x="536" d="M242 123v191h-197v53h197v190h53v-190h197v-53h-197v-191h-53zM45 20v53h447v-53h-447z" />
<glyph unicode="&#xb4;" d="M202 594l84 131h87l-117 -131h-54z" />
<glyph unicode="&#xb5;" d="M112 63v-229h-60v646h60v-276q0 -54 8.5 -83t31.5 -51q38 -36 94 -36q65 0 104 51q38 47 38 129v266h60v-480h-60v92q-24 -55 -58.5 -80t-85.5 -25q-83 0 -132 76z" />
<glyph unicode="&#xb6;" horiz-adv-x="536" d="M209 -203v516h-15q-76 0 -124.5 48.5t-48.5 125.5q0 49 21 89.5t58 62.5q47 28 127 28h240v-48h-57v-822h-53v822h-95v-822h-53z" />
<glyph unicode="&#xb7;" horiz-adv-x="268" d="M95 206v82h79v-82h-79z" />
<glyph unicode="&#xb8;" d="M201 -71l42 71h38l-30 -51q9 2 18 2q33 0 55 -19t22 -47q0 -31 -29 -53t-70 -22q-42 0 -92 23l17 30q41 -19 69 -19q22 0 36.5 10.5t14.5 25.5q0 17 -13.5 27.5t-35.5 10.5q-12 0 -28 -5z" />
<glyph unicode="&#xba;" horiz-adv-x="391" d="M197 369q-67 0 -108 42.5t-41 111.5q0 71 41 113t109 42q66 0 105.5 -42.5t39.5 -112.5q0 -69 -40.5 -111.5t-105.5 -42.5zM196 407q42 0 70 33t28 83t-27.5 83.5t-69.5 33.5q-44 0 -72 -33t-28 -85q0 -50 28 -82.5t71 -32.5zM58 293v41h275v-41h-275z" />
<glyph unicode="&#xbb;" horiz-adv-x="536" d="M254 50l127 197l-127 196h56l134 -196l-133 -197h-57zM86 50l127 197l-127 196h57l133 -196l-133 -197h-57z" />
<glyph unicode="&#xbc;" horiz-adv-x="837" d="M212 -31l363 729h49l-362 -729h-50zM174 267v344q-6 -6 -13 -12l-52 -41l-30 32l102 79h42v-402h-49zM500 92v41l194 270h58l1 -268h63v-43h-63v-92h-49v92h-204zM555 135h149l1 211z" />
<glyph unicode="&#xbd;" horiz-adv-x="837" d="M212 -31l363 729h49l-362 -729h-50zM174 267v344q-6 -6 -13 -12l-52 -41l-30 32l102 79h42v-402h-49zM519 0v39q109 103 154 162.5t45 97.5q0 26 -21.5 44t-53.5 18q-45 0 -102 -32l-10 49q63 28 115 28q55 0 89.5 -28.5t34.5 -73.5q0 -44 -25 -84.5t-101 -119.5 q-44 -46 -57 -57h195v-43h-263z" />
<glyph unicode="&#xbe;" horiz-adv-x="837" d="M213 -31l363 729h49l-363 -729h-49zM35 280l6 48q55 -22 100 -22q48 0 79 21.5t31 55.5q0 23 -15.5 41t-40.5 24q-23 6 -73 6h-26v43h27q124 0 124 68q0 29 -25 46t-66 17t-97 -22l-4 48q53 18 103 18q63 0 102 -28.5t39 -74.5q0 -29 -19.5 -55t-50.5 -36 q33 -10 53.5 -36.5t20.5 -59.5q0 -53 -43.5 -85.5t-116.5 -32.5q-54 0 -108 16zM500 92v41l195 270h58v-268h63v-43h-63l1 -92h-49v92h-205zM555 135h150l1 211z" />
<glyph unicode="&#xbf;" horiz-adv-x="414" d="M172 447v80h79v-80h-79zM60 117q0 42 28 82q12 17 71 84q27 30 25 69q0 4 -1 8h57q1 -4 1 -10q0 -36 -12 -61q-2 -3 -2.5 -5t-2.5 -5t-3 -5t-4.5 -6l-6 -7t-9 -9.5t-11.5 -12l-15 -16.5l-19 -21q-36 -38 -36 -80q0 -34 26 -55t70 -21q37 0 97 19l4 -58q-51 -18 -104 -18 q-70 0 -111.5 35t-41.5 93z" />
<glyph unicode="&#xc0;" horiz-adv-x="641" d="M294 731l-119 128h91l83 -128h-55zM11 0l269 667h77l273 -667h-69l-73 179h-340l-72 -179h-65zM171 236h293l-121 302q-16 39 -25 71l-27 -71z" />
<glyph unicode="&#xc1;" horiz-adv-x="641" d="M289 731l84 128h90l-118 -128h-56zM11 0l269 667h77l273 -667h-69l-73 179h-340l-72 -179h-65zM171 236h293l-121 302q-16 39 -25 71l-27 -71z" />
<glyph unicode="&#xc2;" horiz-adv-x="641" d="M173 731l115 128h73l115 -128h-70l-82 85l-82 -85h-69zM11 0l269 667h77l273 -667h-69l-73 179h-340l-72 -179h-65zM171 236h293l-121 302q-16 39 -25 71l-27 -71z" />
<glyph unicode="&#xc3;" horiz-adv-x="641" d="M180 748q7 44 30 68t57 24q16 0 46 -11l50 -19q24 -9 31 -9q17 0 26 8.5t13 30.5h42q-12 -90 -85 -90q-19 0 -40 8l-51 20q-24 10 -38 10q-30 0 -40 -40h-41zM11 0l269 667h77l273 -667h-69l-73 179h-340l-72 -179h-65zM171 236h293l-121 302q-16 39 -25 71l-27 -71z" />
<glyph unicode="&#xc4;" horiz-adv-x="641" d="M382 746v89h75v-89h-75zM192 746v89h75v-89h-75zM11 0l269 667h77l273 -667h-69l-73 179h-340l-72 -179h-65zM171 236h293l-121 302q-16 39 -25 71l-27 -71z" />
<glyph unicode="&#xc5;" horiz-adv-x="641" d="M324 708q-38 0 -64 26t-26 64q0 37 26.5 63t64.5 26q36 0 62 -26.5t26 -63.5t-26 -63t-63 -26zM324 749q20 0 34 14.5t14 33.5q0 20 -14 34.5t-34 14.5t-34.5 -14t-14.5 -34t14.5 -34.5t34.5 -14.5zM11 0l269 667h77l273 -667h-69l-73 179h-340l-72 -179h-65zM171 236 h293l-121 302q-16 39 -25 71l-27 -71z" />
<glyph unicode="&#xc6;" horiz-adv-x="850" d="M4 0l398 664h375v-57h-267l17 -235h237v-57h-234l18 -258h241v-57h-302l-12 179h-292l-109 -179h-70zM217 236h254l-26 383z" />
<glyph unicode="&#xc7;" horiz-adv-x="589" d="M190 53q-63 40 -99.5 116.5t-36.5 167.5q0 151 95 242t253 91q80 0 149 -27l-5 -61q-73 31 -149 31q-125 0 -200.5 -77.5t-75.5 -204.5t75 -202t203 -75q82 0 148 31l3 -65q-63 -23 -141 -23q-20 0 -36 1l-29 -49q10 2 19 2q34 0 56 -19t22 -49q0 -35 -30 -57.5 t-76 -22.5q-42 0 -91 23l17 33q39 -18 70 -18q21 0 35.5 11.5t14.5 27.5q0 17 -13.5 27.5t-35.5 10.5q-12 0 -28 -5l-14 16l44 73q-83 13 -144 51z" />
<glyph unicode="&#xc8;" horiz-adv-x="485" d="M233 731l-119 128h91l83 -128h-55zM86 0v664h327v-57h-263v-236h251v-57h-251v-257h275v-57h-339z" />
<glyph unicode="&#xc9;" horiz-adv-x="485" d="M217 731l84 128h90l-118 -128h-56zM86 0v664h327v-57h-263v-236h251v-57h-251v-257h275v-57h-339z" />
<glyph unicode="&#xca;" horiz-adv-x="485" d="M106 731l115 128h73l115 -128h-70l-82 85l-82 -85h-69zM86 0v664h327v-57h-263v-236h251v-57h-251v-257h275v-57h-339z" />
<glyph unicode="&#xcb;" horiz-adv-x="485" d="M311 746v89h75v-89h-75zM121 746v89h75v-89h-75zM86 0v664h327v-57h-263v-236h251v-57h-251v-257h275v-57h-339z" />
<glyph unicode="&#xcc;" horiz-adv-x="249" d="M101 731l-112 128h87l77 -128h-52zM93 0v667h64v-667h-64z" />
<glyph unicode="&#xcd;" horiz-adv-x="249" d="M103 731l77 128h87l-112 -128h-52zM93 0v667h64v-667h-64z" />
<glyph unicode="&#xce;" horiz-adv-x="249" d="M5 731l86 128h74l86 -128h-64l-59 87l-59 -87h-64zM93 0v667h64v-667h-64z" />
<glyph unicode="&#xcf;" horiz-adv-x="249" d="M151 746v89h70v-89h-70zM35 746v89h70v-89h-70zM93 0v667h64v-667h-64z" />
<glyph unicode="&#xd0;" horiz-adv-x="642" d="M86 0v319h-73v56h73v292h91q104 0 160 -9t99 -33q71 -39 111.5 -117t40.5 -177q0 -194 -148 -280q-88 -51 -250 -51h-104zM150 57h68q143 0 223 73t80 203q0 79 -31 142.5t-87 96.5q-64 38 -190 38h-63v-235h187v-56h-187v-262z" />
<glyph unicode="&#xd1;" horiz-adv-x="654" d="M196 748q7 44 30 68t57 24q16 0 46 -11l50 -19q24 -9 31 -9q17 0 26 8.5t13 30.5h42q-12 -90 -85 -90q-19 0 -40 8l-51 20q-24 10 -38 10q-30 0 -40 -40h-41zM86 0v667h75l275 -452q65 -107 85 -171q-6 37 -7.5 51t-3.5 59t-2 125v388h60v-667h-72l-272 445 q-72 117 -86 167q6 -54 6 -79q2 -80 2 -118v-415h-60z" />
<glyph unicode="&#xd2;" horiz-adv-x="703" d="M328 731l-119 128h91l83 -128h-55zM134 87q-79 100 -79 244q0 145 75 245q78 102 221 102q133 0 215 -96.5t82 -254.5q0 -154 -80.5 -246t-215.5 -92q-139 0 -218 98zM122 331q0 -128 63 -206.5t167 -78.5q103 0 166 77t63 204q0 126 -60 211q-28 39 -71.5 61t-93.5 22 q-108 0 -171 -78t-63 -212z" />
<glyph unicode="&#xd3;" horiz-adv-x="703" d="M319 731l84 128h90l-118 -128h-56zM134 87q-79 100 -79 244q0 145 75 245q78 102 221 102q133 0 215 -96.5t82 -254.5q0 -154 -80.5 -246t-215.5 -92q-139 0 -218 98zM122 331q0 -128 63 -206.5t167 -78.5q103 0 166 77t63 204q0 126 -60 211q-28 39 -71.5 61t-93.5 22 q-108 0 -171 -78t-63 -212z" />
<glyph unicode="&#xd4;" horiz-adv-x="703" d="M204 731l115 128h73l115 -128h-70l-82 85l-82 -85h-69zM134 87q-79 100 -79 244q0 145 75 245q78 102 221 102q133 0 215 -96.5t82 -254.5q0 -154 -80.5 -246t-215.5 -92q-139 0 -218 98zM122 331q0 -128 63 -206.5t167 -78.5q103 0 166 77t63 204q0 126 -60 211 q-28 39 -71.5 61t-93.5 22q-108 0 -171 -78t-63 -212z" />
<glyph unicode="&#xd5;" horiz-adv-x="703" d="M218 748q7 44 30 68t57 24q16 0 46 -11l50 -19q24 -9 31 -9q17 0 26 8.5t13 30.5h42q-12 -90 -85 -90q-19 0 -40 8l-51 20q-24 10 -38 10q-30 0 -40 -40h-41zM134 87q-79 100 -79 244q0 145 75 245q78 102 221 102q133 0 215 -96.5t82 -254.5q0 -154 -80.5 -246 t-215.5 -92q-139 0 -218 98zM122 331q0 -128 63 -206.5t167 -78.5q103 0 166 77t63 204q0 126 -60 211q-28 39 -71.5 61t-93.5 22q-108 0 -171 -78t-63 -212z" />
<glyph unicode="&#xd6;" horiz-adv-x="703" d="M413 746v89h75v-89h-75zM223 746v89h75v-89h-75zM134 87q-79 100 -79 244q0 145 75 245q78 102 221 102q133 0 215 -96.5t82 -254.5q0 -154 -80.5 -246t-215.5 -92q-139 0 -218 98zM122 331q0 -128 63 -206.5t167 -78.5q103 0 166 77t63 204q0 126 -60 211 q-28 39 -71.5 61t-93.5 22q-108 0 -171 -78t-63 -212z" />
<glyph unicode="&#xd7;" horiz-adv-x="536" d="M122 156l-38 38l146 146l-146 146l38 38l146 -146l146 146l38 -38l-146 -146l146 -146l-38 -38l-146 146z" />
<glyph unicode="&#xd8;" horiz-adv-x="703" d="M56 23l67 79q-68 101 -68 231q0 141 76 243t214 102q118 0 199 -72l64 77l38 -33l-69 -82q71 -104 71 -240q0 -154 -80.5 -246.5t-214.5 -92.5q-116 0 -197 75l-61 -73zM165 150l336 410q-51 61 -149 61q-105 0 -167.5 -79t-62.5 -211q0 -50 9 -88.5t34 -92.5zM198 110 q65 -64 154 -64q102 0 165.5 77t63.5 200q0 102 -46 197z" />
<glyph unicode="&#xd9;" horiz-adv-x="655" d="M311 731l-119 128h91l83 -128h-55zM106 130q-20 51 -20 159v378h64v-378q0 -99 19 -141q20 -46 64.5 -74t96.5 -28q57 0 103.5 34.5t64.5 89.5q11 36 11 119v378h60v-380q0 -104 -18 -151q-26 -71 -84 -109t-138 -38q-79 0 -138.5 37.5t-84.5 103.5z" />
<glyph unicode="&#xda;" horiz-adv-x="655" d="M295 731l84 128h90l-118 -128h-56zM106 130q-20 51 -20 159v378h64v-378q0 -99 19 -141q20 -46 64.5 -74t96.5 -28q57 0 103.5 34.5t64.5 89.5q11 36 11 119v378h60v-380q0 -104 -18 -151q-26 -71 -84 -109t-138 -38q-79 0 -138.5 37.5t-84.5 103.5z" />
<glyph unicode="&#xdb;" horiz-adv-x="655" d="M183 731l115 128h73l115 -128h-70l-82 85l-82 -85h-69zM106 130q-20 51 -20 159v378h64v-378q0 -99 19 -141q20 -46 64.5 -74t96.5 -28q57 0 103.5 34.5t64.5 89.5q11 36 11 119v378h60v-380q0 -104 -18 -151q-26 -71 -84 -109t-138 -38q-79 0 -138.5 37.5t-84.5 103.5z " />
<glyph unicode="&#xdc;" horiz-adv-x="655" d="M392 746v89h75v-89h-75zM202 746v89h75v-89h-75zM106 130q-20 51 -20 159v378h64v-378q0 -99 19 -141q20 -46 64.5 -74t96.5 -28q57 0 103.5 34.5t64.5 89.5q11 36 11 119v378h60v-380q0 -104 -18 -151q-26 -71 -84 -109t-138 -38q-79 0 -138.5 37.5t-84.5 103.5z" />
<glyph unicode="&#xdd;" horiz-adv-x="588" d="M262 731l84 128h90l-118 -128h-56zM264 0v281l-253 386h77l164 -256l29 -45q9 -14 16 -30q5 10 17 32l18 27l173 272h73l-250 -384v-283h-64z" />
<glyph unicode="&#xde;" horiz-adv-x="487" d="M86 0v667h64v-98h62q107 0 158 -31q41 -25 64.5 -67.5t23.5 -92.5q0 -96 -77 -149q-60 -41 -170 -41h-61v-188h-64zM150 245h60q92 0 136 35q45 36 45 99q0 75 -63 112q-38 21 -116 21h-62v-267z" />
<glyph unicode="&#xdf;" horiz-adv-x="838" d="M478 16l6 64q69 -38 127 -38q51 0 83 26.5t32 69.5q0 33 -26 59q-13 10 -58 34l-61 33q-61 33 -83 61.5t-22 74.5q0 63 46.5 100t125.5 37q61 0 117 -22l-8 -60q-57 29 -107 29q-48 0 -79.5 -23.5t-31.5 -58.5q0 -25 15.5 -42t57.5 -41l56 -31q76 -43 91 -61 q30 -36 30 -85q0 -69 -49.5 -111t-130.5 -42q-64 0 -131 27zM59 16l6 64q69 -38 127 -38q51 0 83 26.5t32 69.5q0 34 -27 59q-10 9 -57 34l-61 33q-61 33 -83 61.5t-22 74.5q0 63 46.5 100t125.5 37q61 0 117 -22l-8 -60q-57 29 -107 29q-48 0 -79.5 -23.5t-31.5 -58.5 q0 -25 15.5 -42t57.5 -41l56 -31q75 -41 91 -61q30 -36 30 -85q0 -69 -49.5 -111t-130.5 -42q-64 0 -131 27z" />
<glyph unicode="&#xe0;" horiz-adv-x="523" d="M235 594l-117 131h87l84 -131h-54zM7 0l219 527h67l222 -527h-65l-59 138h-264l-58 -138h-62zM150 193h217l-54 133q-26 64 -28 70l-27 70q-33 -89 -54 -140z" />
<glyph unicode="&#xe1;" horiz-adv-x="523" d="M233 594l84 131h87l-117 -131h-54zM7 0l219 527h67l222 -527h-65l-59 138h-264l-58 -138h-62zM150 193h217l-54 133q-26 64 -28 70l-27 70q-33 -89 -54 -140z" />
<glyph unicode="&#xe2;" horiz-adv-x="523" d="M124 594l105 131h74l105 -131h-63l-79 93l-79 -93h-63zM7 0l219 527h67l222 -527h-65l-59 138h-264l-58 -138h-62zM150 193h217l-54 133q-26 64 -28 70l-27 70q-33 -89 -54 -140z" />
<glyph unicode="&#xe3;" horiz-adv-x="523" d="M136 615q2 41 22 63.5t54 22.5q24 0 51 -11l31 -13q26 -10 39 -10q15 0 23 7.5t12 27.5h38q-8 -86 -73 -86q-23 0 -51 11l-35 13q-27 9 -38 9q-26 0 -35 -34h-38zM7 0l219 527h67l222 -527h-65l-59 138h-264l-58 -138h-62zM150 193h217l-54 133q-26 64 -28 70l-27 70 q-33 -89 -54 -140z" />
<glyph unicode="&#xe4;" horiz-adv-x="523" d="M313 612v87h70v-87h-70zM142 612v87h70v-87h-70zM7 0l219 527h67l222 -527h-65l-59 138h-264l-58 -138h-62zM150 193h217l-54 133q-26 64 -28 70l-27 70q-33 -89 -54 -140z" />
<glyph unicode="&#xe5;" horiz-adv-x="523" d="M263 575q-37 0 -63.5 26.5t-26.5 63.5t26.5 63t64.5 26q36 0 62 -26.5t26 -63.5t-26 -63t-63 -26zM263 616q19 0 33.5 14t14.5 34t-14 34.5t-34 14.5t-34.5 -14t-14.5 -34t14.5 -34.5t34.5 -14.5zM7 0l219 527h67l222 -527h-65l-59 138h-264l-58 -138h-62zM150 193h217 l-54 133q-26 64 -28 70l-27 70q-33 -89 -54 -140z" />
<glyph unicode="&#xe6;" horiz-adv-x="684" d="M1 0l314 525h305v-55h-212l12 -171h190v-55h-187l13 -189h194v-55h-251l-10 139h-217l-84 -139h-67zM185 194h181l-18 272z" />
<glyph unicode="&#xe7;" horiz-adv-x="484" d="M149 42q-49 32 -78 92.5t-29 131.5q0 120 77 192.5t205 72.5q64 0 126 -25l-5 -59q-63 31 -126 31q-97 0 -155.5 -59t-58.5 -157t58 -155.5t158 -57.5q67 0 125 31l4 -62q-32 -13 -58.5 -17t-83.5 -5l-27 -47q9 2 17 2q33 0 55 -19t22 -47q0 -31 -29 -53t-70 -22 q-42 0 -92 23l18 30q39 -19 68 -19q22 0 36.5 10.5t14.5 25.5q0 17 -13.5 27.5t-35.5 10.5q-10 0 -28 -5l-13 16l41 70q-70 9 -123 43z" />
<glyph unicode="&#xe8;" horiz-adv-x="419" d="M200 594l-117 131h87l84 -131h-54zM79 0v525h276v-55h-215v-172h206v-55h-206v-188h224v-55h-285z" />
<glyph unicode="&#xe9;" horiz-adv-x="419" d="M186 594l84 131h87l-117 -131h-54zM79 0v525h276v-55h-215v-172h206v-55h-206v-188h224v-55h-285z" />
<glyph unicode="&#xea;" horiz-adv-x="419" d="M80 594l105 131h74l105 -131h-63l-79 93l-79 -93h-63zM79 0v525h276v-55h-215v-172h206v-55h-206v-188h224v-55h-285z" />
<glyph unicode="&#xeb;" horiz-adv-x="419" d="M271 612v87h70v-87h-70zM100 612v87h70v-87h-70zM79 0v525h276v-55h-215v-172h206v-55h-206v-188h224v-55h-285z" />
<glyph unicode="&#xec;" horiz-adv-x="230" d="M93 594l-97 131h77l74 -131h-54zM84 0v527h61v-527h-61z" />
<glyph unicode="&#xed;" horiz-adv-x="230" d="M90 594l70 131h81l-100 -131h-51zM85 0v527h61v-527h-61z" />
<glyph unicode="&#xee;" horiz-adv-x="230" d="M3 594l81 131h68l82 -131h-57l-59 95l-58 -95h-57zM85 0v527h61v-527h-61z" />
<glyph unicode="&#xef;" horiz-adv-x="230" d="M142 612v87h65v-87h-65zM30 612v87h65v-87h-65zM85 0v527h61v-527h-61z" />
<glyph unicode="&#xf0;" horiz-adv-x="533" d="M78 0v247h-63v50h63v230h83q144 0 206 -33q57 -30 90 -92.5t33 -139.5q0 -73 -31.5 -131.5t-88.5 -90.5q-70 -40 -200 -40h-92zM139 55h53q112 0 173.5 55t61.5 154q0 61 -24 108t-67 71q-51 29 -148 29h-49v-175h143v-50h-143v-192z" />
<glyph unicode="&#xf1;" horiz-adv-x="553" d="M159 615q2 41 22 63.5t54 22.5q24 0 51 -11l31 -13q26 -10 39 -10q15 0 22.5 7.5t12.5 27.5h38q-8 -86 -73 -86q-23 0 -51 11l-35 13q-27 9 -38 9q-26 0 -35 -34h-38zM79 0v527h67l275 -444q-3 119 -3 225v219h57v-527h-66l-275 443q3 -177 3 -225v-218h-58z" />
<glyph unicode="&#xf2;" horiz-adv-x="568" d="M269 594l-117 131h87l84 -131h-54zM43 261q0 116 61 194q63 82 179 82q109 0 175.5 -77t66.5 -202q0 -122 -65.5 -195.5t-174.5 -73.5q-107 0 -174.5 75.5t-67.5 196.5zM106 261q0 -99 49 -159t129 -60t129 59.5t49 156.5t-47 163q-44 63 -127 63q-84 0 -133 -60 t-49 -163z" />
<glyph unicode="&#xf3;" horiz-adv-x="568" d="M253 594l84 131h87l-117 -131h-54zM43 261q0 116 61 194q63 82 179 82q109 0 175.5 -77t66.5 -202q0 -122 -65.5 -195.5t-174.5 -73.5q-107 0 -174.5 75.5t-67.5 196.5zM106 261q0 -99 49 -159t129 -60t129 59.5t49 156.5t-47 163q-44 63 -127 63q-84 0 -133 -60 t-49 -163z" />
<glyph unicode="&#xf4;" horiz-adv-x="568" d="M149 594l105 131h74l105 -131h-63l-79 93l-79 -93h-63zM43 261q0 116 61 194q63 82 179 82q109 0 175.5 -77t66.5 -202q0 -122 -65.5 -195.5t-174.5 -73.5q-107 0 -174.5 75.5t-67.5 196.5zM106 261q0 -99 49 -159t129 -60t129 59.5t49 156.5t-47 163q-44 63 -127 63 q-84 0 -133 -60t-49 -163z" />
<glyph unicode="&#xf5;" horiz-adv-x="568" d="M163 615q2 41 22 63.5t54 22.5q24 0 51 -11l31 -13q26 -10 39 -10q15 0 22.5 7.5t12.5 27.5h38q-8 -86 -73 -86q-23 0 -51 11l-35 13q-27 9 -38 9q-26 0 -35 -34h-38zM43 261q0 116 61 194q63 82 179 82q109 0 175.5 -77t66.5 -202q0 -122 -65.5 -195.5t-174.5 -73.5 q-107 0 -174.5 75.5t-67.5 196.5zM106 261q0 -99 49 -159t129 -60t129 59.5t49 156.5t-47 163q-44 63 -127 63q-84 0 -133 -60t-49 -163z" />
<glyph unicode="&#xf6;" horiz-adv-x="568" d="M341 612v87h70v-87h-70zM170 612v87h70v-87h-70zM43 261q0 116 61 194q63 82 179 82q109 0 175.5 -77t66.5 -202q0 -122 -65.5 -195.5t-174.5 -73.5q-107 0 -174.5 75.5t-67.5 196.5zM106 261q0 -99 49 -159t129 -60t129 59.5t49 156.5t-47 163q-44 63 -127 63 q-84 0 -133 -60t-49 -163z" />
<glyph unicode="&#xf7;" horiz-adv-x="536" d="M225 434v87h87v-87h-87zM45 314v53h447v-53h-447zM225 160v87h87v-87h-87z" />
<glyph unicode="&#xf8;" horiz-adv-x="568" d="M50 17l50 60q-57 86 -57 185q0 112 61 193q62 82 175 82q91 0 159 -55l46 56l35 -29l-51 -61q57 -74 57 -190q0 -121 -65.5 -194.5t-174.5 -73.5q-84 0 -155 54l-46 -56zM140 121l259 317q-40 46 -115 46q-81 0 -129.5 -61t-48.5 -162q0 -40 6 -64t28 -76zM169 88 q43 -45 116 -45q80 0 128.5 59t48.5 156q0 85 -35 144z" />
<glyph unicode="&#xf9;" horiz-adv-x="553" d="M257 594l-117 131h87l84 -131h-54zM95 104q-17 41 -17 125v298h61v-298q0 -75 15 -108q16 -34 50 -55.5t74 -21.5q44 0 80 26t50 67q9 27 9 92v298h58v-300q0 -81 -15 -119q-21 -55 -69 -86t-113 -31q-64 0 -113 30t-70 83z" />
<glyph unicode="&#xfa;" horiz-adv-x="553" d="M249 594l84 131h87l-117 -131h-54zM95 104q-17 41 -17 125v298h61v-298q0 -75 15 -108q16 -34 50 -55.5t74 -21.5q44 0 80 26t50 67q9 27 9 92v298h58v-300q0 -81 -15 -119q-21 -55 -69 -86t-113 -31q-64 0 -113 30t-70 83z" />
<glyph unicode="&#xfb;" horiz-adv-x="553" d="M141 594l105 131h74l105 -131h-63l-79 93l-79 -93h-63zM95 104q-17 41 -17 125v298h61v-298q0 -75 15 -108q16 -34 50 -55.5t74 -21.5q44 0 80 26t50 67q9 27 9 92v298h58v-300q0 -81 -15 -119q-21 -55 -69 -86t-113 -31q-64 0 -113 30t-70 83z" />
<glyph unicode="&#xfc;" horiz-adv-x="553" d="M330 612v87h70v-87h-70zM159 612v87h70v-87h-70zM95 104q-17 41 -17 125v298h61v-298q0 -75 15 -108q16 -34 50 -55.5t74 -21.5q44 0 80 26t50 67q9 27 9 92v298h58v-300q0 -81 -15 -119q-21 -55 -69 -86t-113 -31q-64 0 -113 30t-70 83z" />
<glyph unicode="&#xfd;" horiz-adv-x="485" d="M212 594l84 131h87l-117 -131h-54zM213 0v221l-206 306h72l135 -201q15 -24 30 -56q15 33 32 58l133 199h69l-204 -304v-223h-61z" />
<glyph unicode="&#xfe;" horiz-adv-x="415" d="M78 0v527h61v-87h49q87 0 129 -24q34 -20 53.5 -54.5t19.5 -74.5q0 -77 -64 -120q-48 -32 -139 -32h-48v-135h-61zM139 190h47q74 0 106 26q35 26 35 72q0 55 -48 81q-28 16 -91 16h-49v-195z" />
<glyph unicode="&#xff;" horiz-adv-x="485" d="M298 612v87h70v-87h-70zM127 612v87h70v-87h-70zM213 0v221l-206 306h72l135 -201q15 -24 30 -56q15 33 32 58l133 199h69l-204 -304v-223h-61z" />
<glyph unicode="&#x152;" horiz-adv-x="863" d="M190 57q-65 45 -100.5 117.5t-35.5 160.5q0 100 42.5 177t118.5 116q83 43 205 43q53 0 98 -2q86 -2 90 -2h181v-57h-261v-238h249v-57h-249v-258h274v-57h-225h-49q-4 0 -9.5 -0.5t-17.5 -1t-30 -0.5q-19 -1 -51 -1q-141 0 -230 60zM121 336q0 -128 77 -204.5t205 -76.5 q32 0 61 6v542q-37 10 -65 10q-43 0 -92 -14t-80 -35q-106 -73 -106 -228z" />
<glyph unicode="&#x153;" horiz-adv-x="706" d="M159 44q-53 35 -81.5 93t-28.5 128q0 78 34.5 139t95.5 92q68 34 162 34q42 0 78 -2q66 -2 70 -2h151v-55h-208v-172h198v-55h-198v-189h218v-55h-186q-36 0 -81 -3q-15 -1 -42 -1q-111 0 -182 48zM112 265q0 -97 59 -156t156 -59q24 0 45 7v416q-24 3 -43 3 q-99 0 -158 -57.5t-59 -153.5z" />
<glyph unicode="&#x178;" horiz-adv-x="588" d="M359 746v89h75v-89h-75zM169 746v89h75v-89h-75zM264 0v281l-253 386h77l164 -256l29 -45q9 -14 16 -30q5 10 17 32l18 27l173 272h73l-250 -384v-283h-64z" />
<glyph unicode="&#x2c6;" d="M108 594l105 131h74l105 -131h-63l-79 93l-79 -93h-63z" />
<glyph unicode="&#x2dc;" d="M115 615q2 41 22 63.5t54 22.5q24 0 51 -11l31 -13q26 -10 39 -10q15 0 22.5 7.5t12.5 27.5h38q-8 -86 -73 -86q-23 0 -51 11l-35 13q-27 9 -38 9q-26 0 -35 -34h-38z" />
<glyph unicode="&#x2000;" horiz-adv-x="443" />
<glyph unicode="&#x2001;" horiz-adv-x="887" />
<glyph unicode="&#x2002;" horiz-adv-x="443" />
<glyph unicode="&#x2003;" horiz-adv-x="887" />
<glyph unicode="&#x2004;" horiz-adv-x="295" />
<glyph unicode="&#x2005;" horiz-adv-x="221" />
<glyph unicode="&#x2006;" horiz-adv-x="147" />
<glyph unicode="&#x2007;" horiz-adv-x="147" />
<glyph unicode="&#x2008;" horiz-adv-x="110" />
<glyph unicode="&#x2009;" horiz-adv-x="177" />
<glyph unicode="&#x200a;" horiz-adv-x="49" />
<glyph unicode="&#x2010;" horiz-adv-x="220" d="M0 222v51h220v-51h-220z" />
<glyph unicode="&#x2011;" horiz-adv-x="220" d="M0 222v51h220v-51h-220z" />
<glyph unicode="&#x2013;" horiz-adv-x="536" d="M48 222v51h440v-51h-440z" />
<glyph unicode="&#x2014;" horiz-adv-x="661" d="M0 222v51h661v-51h-661z" />
<glyph unicode="&#x2018;" horiz-adv-x="267" d="M73 510l72 210h61l-55 -210h-78z" />
<glyph unicode="&#x2019;" horiz-adv-x="267" d="M60 510l56 210h78l-73 -210h-61z" />
<glyph unicode="&#x201a;" horiz-adv-x="267" d="M60 -128l56 210h78l-73 -210h-61z" />
<glyph unicode="&#x201c;" horiz-adv-x="434" d="M241 510l72 210h61l-55 -210h-78zM73 510l72 210h61l-55 -210h-78z" />
<glyph unicode="&#x201d;" horiz-adv-x="434" d="M228 510l55 210h78l-72 -210h-61zM60 510l55 210h78l-72 -210h-61z" />
<glyph unicode="&#x201e;" horiz-adv-x="434" d="M241 -129l55 211h78l-72 -211h-61zM73 -129l55 211h78l-72 -211h-61z" />
<glyph unicode="&#x2022;" horiz-adv-x="667" d="M335 200q-58 0 -98.5 40.5t-40.5 97.5q0 58 40.5 98.5t99.5 40.5q56 0 96.5 -41t40.5 -98t-40.5 -97.5t-97.5 -40.5z" />
<glyph unicode="&#x2026;" horiz-adv-x="804" d="M631 0v82h79v-82h-79zM363 0v82h79v-82h-79zM95 0v82h79v-82h-79z" />
<glyph unicode="&#x202f;" horiz-adv-x="177" />
<glyph unicode="&#x2039;" horiz-adv-x="369" d="M226 50l-133 197l134 196h56l-127 -196l127 -197h-57z" />
<glyph unicode="&#x203a;" horiz-adv-x="369" d="M86 50l127 197l-127 196h57l133 -196l-133 -197h-57z" />
<glyph unicode="&#x205f;" horiz-adv-x="221" />
<glyph unicode="&#x20ac;" horiz-adv-x="516" d="M48 164l16 51h47q-1 9 -1 26v12h-62l16 51h51q17 90 76 141t147 51q75 0 130 -38l-21 -65q-43 51 -110 51q-57 0 -97.5 -37t-56.5 -103h237l-16 -51h-227v-12q0 -19 1 -26h213l-16 -51h-187q17 -56 57.5 -89.5t91.5 -33.5q67 0 111 52v-78q-51 -26 -109 -26 q-84 0 -142 46t-78 129h-71z" />
<glyph unicode="&#x2122;" horiz-adv-x="811" d="M342 287v382h66l105 -234q29 -66 38 -94q11 31 42 100l104 228h67v-382h-48v237q0 48 1 89q-11 -28 -37 -86l-110 -240h-40l-108 240q-13 28 -35 81q2 -56 2 -64q1 -12 1 -26v-231h-48zM124 287v339h-120v41h287v-41h-119v-339h-48z" />
</font>
</defs>
</svg>
